<?xml version="1.0" encoding="UTF-8" standalone="no"?>
<!-- Created with Inkscape (http://www.inkscape.org/) -->

<svg
   xmlns:dc="http://purl.org/dc/elements/1.1/"
   xmlns:cc="http://creativecommons.org/ns#"
   xmlns:rdf="http://www.w3.org/1999/02/22-rdf-syntax-ns#"
   xmlns:svg="http://www.w3.org/2000/svg"
   xmlns="http://www.w3.org/2000/svg"
   xmlns:sodipodi="http://sodipodi.sourceforge.net/DTD/sodipodi-0.dtd"
   xmlns:inkscape="http://www.inkscape.org/namespaces/inkscape"
   id="svg3004"
   version="1.1"
   inkscape:version="0.48.4 r9939"
   width="787.10303"
   height="316.8504"
   xml:space="preserve"
   sodipodi:docname="coverage_diagram2_part1.pdf"><metadata
     id="metadata3010"><rdf:RDF><cc:Work
         rdf:about=""><dc:format>image/svg+xml</dc:format><dc:type
           rdf:resource="http://purl.org/dc/dcmitype/StillImage" /><dc:title></dc:title></cc:Work></rdf:RDF></metadata><defs
     id="defs3008"><clipPath
       clipPathUnits="userSpaceOnUse"
       id="clipPath3020"><path
         d="m 4.555,745.696 628.406,0 0,-298.188 -628.406,0 0,298.188 z"
         id="path3022"
         inkscape:connector-curvature="0" /></clipPath><clipPath
       clipPathUnits="userSpaceOnUse"
       id="clipPath3030"><path
         d="m 3,447 631,0 0,300 -631,0 0,-300 z"
         id="path3032"
         inkscape:connector-curvature="0" /></clipPath><clipPath
       clipPathUnits="userSpaceOnUse"
       id="clipPath3040"><path
         d="m 3,747 631,0 0,-300 -631,0 0,300 z"
         id="path3042"
         inkscape:connector-curvature="0" /></clipPath><clipPath
       clipPathUnits="userSpaceOnUse"
       id="clipPath3050"><path
         d="m 3,447 631,0 0,300 -631,0 0,-300 z"
         id="path3052"
         inkscape:connector-curvature="0" /></clipPath><clipPath
       clipPathUnits="userSpaceOnUse"
       id="clipPath3060"><path
         d="m 3,747 631,0 0,-300 -631,0 0,300 z"
         id="path3062"
         inkscape:connector-curvature="0" /></clipPath><clipPath
       clipPathUnits="userSpaceOnUse"
       id="clipPath3070"><path
         d="m 3,447 631,0 0,300 -631,0 0,-300 z"
         id="path3072"
         inkscape:connector-curvature="0" /></clipPath><clipPath
       clipPathUnits="userSpaceOnUse"
       id="clipPath3080"><path
         d="m 3,747 631,0 0,-300 -631,0 0,300 z"
         id="path3082"
         inkscape:connector-curvature="0" /></clipPath><clipPath
       clipPathUnits="userSpaceOnUse"
       id="clipPath3090"><path
         d="m 3,447 631,0 0,300 -631,0 0,-300 z"
         id="path3092"
         inkscape:connector-curvature="0" /></clipPath><clipPath
       clipPathUnits="userSpaceOnUse"
       id="clipPath3104"><path
         d="m 23.465,724.774 603.5,0 0,-226.25 -603.5,0 0,226.25 z"
         id="path3106"
         inkscape:connector-curvature="0" /></clipPath><clipPath
       clipPathUnits="userSpaceOnUse"
       id="clipPath3114"><path
         d="m 22,498 606,0 0,228 -606,0 0,-228 z"
         id="path3116"
         inkscape:connector-curvature="0" /></clipPath><clipPath
       clipPathUnits="userSpaceOnUse"
       id="clipPath3124"><path
         d="m 22,726 606,0 0,-228 -606,0 0,228 z"
         id="path3126"
         inkscape:connector-curvature="0" /></clipPath><clipPath
       clipPathUnits="userSpaceOnUse"
       id="clipPath3134"><path
         d="m 22,498 606,0 0,228 -606,0 0,-228 z"
         id="path3136"
         inkscape:connector-curvature="0" /></clipPath><clipPath
       clipPathUnits="userSpaceOnUse"
       id="clipPath3144"><path
         d="m 22,726 606,0 0,-228 -606,0 0,228 z"
         id="path3146"
         inkscape:connector-curvature="0" /></clipPath><clipPath
       clipPathUnits="userSpaceOnUse"
       id="clipPath3154"><path
         d="m 22,498 606,0 0,228 -606,0 0,-228 z"
         id="path3156"
         inkscape:connector-curvature="0" /></clipPath><clipPath
       clipPathUnits="userSpaceOnUse"
       id="clipPath3164"><path
         d="m 22,726 606,0 0,-228 -606,0 0,228 z"
         id="path3166"
         inkscape:connector-curvature="0" /></clipPath><clipPath
       clipPathUnits="userSpaceOnUse"
       id="clipPath3174"><path
         d="m 22,498 606,0 0,228 -606,0 0,-228 z"
         id="path3176"
         inkscape:connector-curvature="0" /></clipPath><clipPath
       clipPathUnits="userSpaceOnUse"
       id="clipPath3320"><path
         d="m 16.367,386.828 183.41,0 0,-228.699 -183.41,0 0,228.699 z"
         id="path3322"
         inkscape:connector-curvature="0" /></clipPath><clipPath
       clipPathUnits="userSpaceOnUse"
       id="clipPath3330"><path
         d="m 16,157 185,0 0,231 -185,0 0,-231 z"
         id="path3332"
         inkscape:connector-curvature="0" /></clipPath><clipPath
       clipPathUnits="userSpaceOnUse"
       id="clipPath3340"><path
         d="m 16,388 185,0 0,-231 -185,0 0,231 z"
         id="path3342"
         inkscape:connector-curvature="0" /></clipPath><clipPath
       clipPathUnits="userSpaceOnUse"
       id="clipPath3350"><path
         d="m 16,157 185,0 0,231 -185,0 0,-231 z"
         id="path3352"
         inkscape:connector-curvature="0" /></clipPath><clipPath
       clipPathUnits="userSpaceOnUse"
       id="clipPath3364"><path
         d="m 53.66,349.028 144.676,0 0,-162.848 -144.676,0 0,162.848 z"
         id="path3366"
         inkscape:connector-curvature="0" /></clipPath><clipPath
       clipPathUnits="userSpaceOnUse"
       id="clipPath3374"><path
         d="m 53,185 146,0 0,165 -146,0 0,-165 z"
         id="path3376"
         inkscape:connector-curvature="0" /></clipPath><clipPath
       clipPathUnits="userSpaceOnUse"
       id="clipPath3384"><path
         d="m 53,350 146,0 0,-165 -146,0 0,165 z"
         id="path3386"
         inkscape:connector-curvature="0" /></clipPath><clipPath
       clipPathUnits="userSpaceOnUse"
       id="clipPath3394"><path
         d="m 53,185 146,0 0,165 -146,0 0,-165 z"
         id="path3396"
         inkscape:connector-curvature="0" /></clipPath><clipPath
       clipPathUnits="userSpaceOnUse"
       id="clipPath4864"><path
         d="m 95.535,378.2 65.012,0 0,-13.004 -65.012,0 0,13.004 z"
         id="path4866"
         inkscape:connector-curvature="0" /></clipPath><clipPath
       clipPathUnits="userSpaceOnUse"
       id="clipPath4874"><path
         d="m 95,365 66,0 0,14 -66,0 0,-14 z"
         id="path4876"
         inkscape:connector-curvature="0" /></clipPath><clipPath
       clipPathUnits="userSpaceOnUse"
       id="clipPath4884"><path
         d="m 95.535,378.504 65.012,0 0,-13.004 -65.012,0 0,13.004 z"
         id="path4886"
         inkscape:connector-curvature="0" /></clipPath><clipPath
       clipPathUnits="userSpaceOnUse"
       id="clipPath4954"><path
         d="m 217.418,386.828 370.242,0 0,-138.301 -370.242,0 0,138.301 z"
         id="path4956"
         inkscape:connector-curvature="0" /></clipPath><clipPath
       clipPathUnits="userSpaceOnUse"
       id="clipPath4964"><path
         d="m 216,248 373,0 0,140 -373,0 0,-140 z"
         id="path4966"
         inkscape:connector-curvature="0" /></clipPath><clipPath
       clipPathUnits="userSpaceOnUse"
       id="clipPath4974"><path
         d="m 216,388 373,0 0,-140 -373,0 0,140 z"
         id="path4976"
         inkscape:connector-curvature="0" /></clipPath><clipPath
       clipPathUnits="userSpaceOnUse"
       id="clipPath4984"><path
         d="m 216,248 373,0 0,140 -373,0 0,-140 z"
         id="path4986"
         inkscape:connector-curvature="0" /></clipPath><clipPath
       clipPathUnits="userSpaceOnUse"
       id="clipPath4998"><path
         d="m 270.891,347.801 343.703,0 0,-77.105 -343.703,0 0,77.105 z"
         id="path5000"
         inkscape:connector-curvature="0" /></clipPath><clipPath
       clipPathUnits="userSpaceOnUse"
       id="clipPath5008"><path
         d="m 270,270 346,0 0,79 -346,0 0,-79 z"
         id="path5010"
         inkscape:connector-curvature="0" /></clipPath><clipPath
       clipPathUnits="userSpaceOnUse"
       id="clipPath5018"><path
         d="m 270,349 346,0 0,-79 -346,0 0,79 z"
         id="path5020"
         inkscape:connector-curvature="0" /></clipPath><clipPath
       clipPathUnits="userSpaceOnUse"
       id="clipPath5028"><path
         d="m 270,270 346,0 0,79 -346,0 0,-79 z"
         id="path5030"
         inkscape:connector-curvature="0" /></clipPath><clipPath
       clipPathUnits="userSpaceOnUse"
       id="clipPath5156"><path
         d="m 16.367,152.934 177.676,0 0,-128.289 -177.676,0 0,128.289 z"
         id="path5158"
         inkscape:connector-curvature="0" /></clipPath><clipPath
       clipPathUnits="userSpaceOnUse"
       id="clipPath5166"><path
         d="m 15,24 180,0 0,130 -180,0 0,-130 z"
         id="path5168"
         inkscape:connector-curvature="0" /></clipPath><clipPath
       clipPathUnits="userSpaceOnUse"
       id="clipPath5176"><path
         d="m 15,154 180,0 0,-130 -180,0 0,130 z"
         id="path5178"
         inkscape:connector-curvature="0" /></clipPath><clipPath
       clipPathUnits="userSpaceOnUse"
       id="clipPath5186"><path
         d="m 15,24 180,0 0,130 -180,0 0,-130 z"
         id="path5188"
         inkscape:connector-curvature="0" /></clipPath><clipPath
       clipPathUnits="userSpaceOnUse"
       id="clipPath5200"><path
         d="m 57.891,128.864 124.707,0 0,-71.875 -124.707,0 0,71.875 z"
         id="path5202"
         inkscape:connector-curvature="0" /></clipPath><clipPath
       clipPathUnits="userSpaceOnUse"
       id="clipPath5210"><path
         d="m 57,56 127,0 0,74 -127,0 0,-74 z"
         id="path5212"
         inkscape:connector-curvature="0" /></clipPath><clipPath
       clipPathUnits="userSpaceOnUse"
       id="clipPath5220"><path
         d="m 57,130 127,0 0,-74 -127,0 0,74 z"
         id="path5222"
         inkscape:connector-curvature="0" /></clipPath><clipPath
       clipPathUnits="userSpaceOnUse"
       id="clipPath5230"><path
         d="m 57,56 127,0 0,74 -127,0 0,-74 z"
         id="path5232"
         inkscape:connector-curvature="0" /></clipPath><clipPath
       clipPathUnits="userSpaceOnUse"
       id="clipPath5688"><path
         d="m 4.555,745.696 628.406,0 0,-298.188 -628.406,0 0,298.188 z"
         id="path5690"
         inkscape:connector-curvature="0" /></clipPath><clipPath
       clipPathUnits="userSpaceOnUse"
       id="clipPath5698"><path
         d="m 3,447 631,0 0,300 -631,0 0,-300 z"
         id="path5700"
         inkscape:connector-curvature="0" /></clipPath><clipPath
       clipPathUnits="userSpaceOnUse"
       id="clipPath5708"><path
         d="m 3,747 631,0 0,-300 -631,0 0,300 z"
         id="path5710"
         inkscape:connector-curvature="0" /></clipPath><clipPath
       clipPathUnits="userSpaceOnUse"
       id="clipPath5718"><path
         d="m 3,447 631,0 0,300 -631,0 0,-300 z"
         id="path5720"
         inkscape:connector-curvature="0" /></clipPath><clipPath
       clipPathUnits="userSpaceOnUse"
       id="clipPath5728"><path
         d="m 3,747 631,0 0,-300 -631,0 0,300 z"
         id="path5730"
         inkscape:connector-curvature="0" /></clipPath><clipPath
       clipPathUnits="userSpaceOnUse"
       id="clipPath5738"><path
         d="m 3,447 631,0 0,300 -631,0 0,-300 z"
         id="path5740"
         inkscape:connector-curvature="0" /></clipPath><clipPath
       clipPathUnits="userSpaceOnUse"
       id="clipPath5748"><path
         d="m 3,747 631,0 0,-300 -631,0 0,300 z"
         id="path5750"
         inkscape:connector-curvature="0" /></clipPath><clipPath
       clipPathUnits="userSpaceOnUse"
       id="clipPath5758"><path
         d="m 3,447 631,0 0,300 -631,0 0,-300 z"
         id="path5760"
         inkscape:connector-curvature="0" /></clipPath><clipPath
       clipPathUnits="userSpaceOnUse"
       id="clipPath5772"><path
         d="m 23.465,724.774 603.5,0 0,-226.25 -603.5,0 0,226.25 z"
         id="path5774"
         inkscape:connector-curvature="0" /></clipPath><clipPath
       clipPathUnits="userSpaceOnUse"
       id="clipPath5782"><path
         d="m 22,498 606,0 0,228 -606,0 0,-228 z"
         id="path5784"
         inkscape:connector-curvature="0" /></clipPath><clipPath
       clipPathUnits="userSpaceOnUse"
       id="clipPath5792"><path
         d="m 22,726 606,0 0,-228 -606,0 0,228 z"
         id="path5794"
         inkscape:connector-curvature="0" /></clipPath><clipPath
       clipPathUnits="userSpaceOnUse"
       id="clipPath5802"><path
         d="m 22,498 606,0 0,228 -606,0 0,-228 z"
         id="path5804"
         inkscape:connector-curvature="0" /></clipPath><clipPath
       clipPathUnits="userSpaceOnUse"
       id="clipPath5812"><path
         d="m 22,726 606,0 0,-228 -606,0 0,228 z"
         id="path5814"
         inkscape:connector-curvature="0" /></clipPath><clipPath
       clipPathUnits="userSpaceOnUse"
       id="clipPath5822"><path
         d="m 22,498 606,0 0,228 -606,0 0,-228 z"
         id="path5824"
         inkscape:connector-curvature="0" /></clipPath><clipPath
       clipPathUnits="userSpaceOnUse"
       id="clipPath5832"><path
         d="m 22,726 606,0 0,-228 -606,0 0,228 z"
         id="path5834"
         inkscape:connector-curvature="0" /></clipPath><clipPath
       clipPathUnits="userSpaceOnUse"
       id="clipPath5842"><path
         d="m 22,498 606,0 0,228 -606,0 0,-228 z"
         id="path5844"
         inkscape:connector-curvature="0" /></clipPath><clipPath
       clipPathUnits="userSpaceOnUse"
       id="clipPath5988"><path
         d="m 16.367,386.828 183.41,0 0,-228.699 -183.41,0 0,228.699 z"
         id="path5990"
         inkscape:connector-curvature="0" /></clipPath><clipPath
       clipPathUnits="userSpaceOnUse"
       id="clipPath5998"><path
         d="m 16,157 185,0 0,231 -185,0 0,-231 z"
         id="path6000"
         inkscape:connector-curvature="0" /></clipPath><clipPath
       clipPathUnits="userSpaceOnUse"
       id="clipPath6008"><path
         d="m 16,388 185,0 0,-231 -185,0 0,231 z"
         id="path6010"
         inkscape:connector-curvature="0" /></clipPath><clipPath
       clipPathUnits="userSpaceOnUse"
       id="clipPath6018"><path
         d="m 16,157 185,0 0,231 -185,0 0,-231 z"
         id="path6020"
         inkscape:connector-curvature="0" /></clipPath><clipPath
       clipPathUnits="userSpaceOnUse"
       id="clipPath6032"><path
         d="m 53.66,349.028 144.676,0 0,-162.848 -144.676,0 0,162.848 z"
         id="path6034"
         inkscape:connector-curvature="0" /></clipPath><clipPath
       clipPathUnits="userSpaceOnUse"
       id="clipPath6042"><path
         d="m 53,185 146,0 0,165 -146,0 0,-165 z"
         id="path6044"
         inkscape:connector-curvature="0" /></clipPath><clipPath
       clipPathUnits="userSpaceOnUse"
       id="clipPath6052"><path
         d="m 53,350 146,0 0,-165 -146,0 0,165 z"
         id="path6054"
         inkscape:connector-curvature="0" /></clipPath><clipPath
       clipPathUnits="userSpaceOnUse"
       id="clipPath6062"><path
         d="m 53,185 146,0 0,165 -146,0 0,-165 z"
         id="path6064"
         inkscape:connector-curvature="0" /></clipPath><clipPath
       clipPathUnits="userSpaceOnUse"
       id="clipPath7532"><path
         d="m 95.535,378.2 65.012,0 0,-13.004 -65.012,0 0,13.004 z"
         id="path7534"
         inkscape:connector-curvature="0" /></clipPath><clipPath
       clipPathUnits="userSpaceOnUse"
       id="clipPath7542"><path
         d="m 95,365 66,0 0,14 -66,0 0,-14 z"
         id="path7544"
         inkscape:connector-curvature="0" /></clipPath><clipPath
       clipPathUnits="userSpaceOnUse"
       id="clipPath7552"><path
         d="m 95.535,378.504 65.012,0 0,-13.004 -65.012,0 0,13.004 z"
         id="path7554"
         inkscape:connector-curvature="0" /></clipPath><clipPath
       clipPathUnits="userSpaceOnUse"
       id="clipPath7622"><path
         d="m 217.418,386.828 370.242,0 0,-138.301 -370.242,0 0,138.301 z"
         id="path7624"
         inkscape:connector-curvature="0" /></clipPath><clipPath
       clipPathUnits="userSpaceOnUse"
       id="clipPath7632"><path
         d="m 216,248 373,0 0,140 -373,0 0,-140 z"
         id="path7634"
         inkscape:connector-curvature="0" /></clipPath><clipPath
       clipPathUnits="userSpaceOnUse"
       id="clipPath7642"><path
         d="m 216,388 373,0 0,-140 -373,0 0,140 z"
         id="path7644"
         inkscape:connector-curvature="0" /></clipPath><clipPath
       clipPathUnits="userSpaceOnUse"
       id="clipPath7652"><path
         d="m 216,248 373,0 0,140 -373,0 0,-140 z"
         id="path7654"
         inkscape:connector-curvature="0" /></clipPath><clipPath
       clipPathUnits="userSpaceOnUse"
       id="clipPath7666"><path
         d="m 270.891,347.801 343.703,0 0,-77.105 -343.703,0 0,77.105 z"
         id="path7668"
         inkscape:connector-curvature="0" /></clipPath><clipPath
       clipPathUnits="userSpaceOnUse"
       id="clipPath7676"><path
         d="m 270,270 346,0 0,79 -346,0 0,-79 z"
         id="path7678"
         inkscape:connector-curvature="0" /></clipPath><clipPath
       clipPathUnits="userSpaceOnUse"
       id="clipPath7686"><path
         d="m 270,349 346,0 0,-79 -346,0 0,79 z"
         id="path7688"
         inkscape:connector-curvature="0" /></clipPath><clipPath
       clipPathUnits="userSpaceOnUse"
       id="clipPath7696"><path
         d="m 270,270 346,0 0,79 -346,0 0,-79 z"
         id="path7698"
         inkscape:connector-curvature="0" /></clipPath><clipPath
       clipPathUnits="userSpaceOnUse"
       id="clipPath7824"><path
         d="m 16.367,152.934 177.676,0 0,-128.289 -177.676,0 0,128.289 z"
         id="path7826"
         inkscape:connector-curvature="0" /></clipPath><clipPath
       clipPathUnits="userSpaceOnUse"
       id="clipPath7834"><path
         d="m 15,24 180,0 0,130 -180,0 0,-130 z"
         id="path7836"
         inkscape:connector-curvature="0" /></clipPath><clipPath
       clipPathUnits="userSpaceOnUse"
       id="clipPath7844"><path
         d="m 15,154 180,0 0,-130 -180,0 0,130 z"
         id="path7846"
         inkscape:connector-curvature="0" /></clipPath><clipPath
       clipPathUnits="userSpaceOnUse"
       id="clipPath7854"><path
         d="m 15,24 180,0 0,130 -180,0 0,-130 z"
         id="path7856"
         inkscape:connector-curvature="0" /></clipPath><clipPath
       clipPathUnits="userSpaceOnUse"
       id="clipPath7868"><path
         d="m 57.891,128.864 124.707,0 0,-71.875 -124.707,0 0,71.875 z"
         id="path7870"
         inkscape:connector-curvature="0" /></clipPath><clipPath
       clipPathUnits="userSpaceOnUse"
       id="clipPath7878"><path
         d="m 57,56 127,0 0,74 -127,0 0,-74 z"
         id="path7880"
         inkscape:connector-curvature="0" /></clipPath><clipPath
       clipPathUnits="userSpaceOnUse"
       id="clipPath7888"><path
         d="m 57,130 127,0 0,-74 -127,0 0,74 z"
         id="path7890"
         inkscape:connector-curvature="0" /></clipPath><clipPath
       clipPathUnits="userSpaceOnUse"
       id="clipPath7898"><path
         d="m 57,56 127,0 0,74 -127,0 0,-74 z"
         id="path7900"
         inkscape:connector-curvature="0" /></clipPath></defs><sodipodi:namedview
     pagecolor="#ffffff"
     bordercolor="#666666"
     borderopacity="1"
     objecttolerance="10"
     gridtolerance="10"
     guidetolerance="10"
     inkscape:pageopacity="0"
     inkscape:pageshadow="2"
     inkscape:window-width="1920"
     inkscape:window-height="1028"
     id="namedview3006"
     showgrid="false"
     inkscape:zoom="1.0073421"
     inkscape:cx="98.082386"
     inkscape:cy="-8.869116"
     inkscape:window-x="0"
     inkscape:window-y="0"
     inkscape:window-maximized="1"
     inkscape:current-layer="g3012"
     fit-margin-top="0"
     fit-margin-left="0"
     fit-margin-right="0"
     fit-margin-bottom="0" /><g
     id="g3012"
     inkscape:groupmode="layer"
     inkscape:label="coverage_diagram2"
     transform="matrix(1.25,0,0,-1.25,-4.9024811,924.03098)"><g
       id="g11082"><g
         id="g3014" /><g
         id="g3100"><g
           clip-path="url(#clipPath3104)"
           id="g3102"><g
             transform="translate(0,-0.304321)"
             id="g3108"><g
               id="g3110"><g
                 clip-path="url(#clipPath3114)"
                 id="g3112"><g
                   id="g3118" /><g
                   id="g3120"><g
                     clip-path="url(#clipPath3124)"
                     id="g3122"><g
                       id="g3128"><g
                         id="g3130"><g
                           clip-path="url(#clipPath3134)"
                           id="g3132"><g
                             id="g3138" /><g
                             id="g3140"><g
                               clip-path="url(#clipPath3144)"
                               id="g3142"><g
                                 id="g3148"><g
                                   id="g3150"><g
                                   clip-path="url(#clipPath3154)"
                                   id="g3152"><g
                                   id="g3158" /><g
                                   id="g3160"><g
                                   clip-path="url(#clipPath3164)"
                                   id="g3162"><g
                                   id="g3168"><g
                                   id="g3170"><g
                                   clip-path="url(#clipPath3174)"
                                   id="g3172"><g
                                   id="g3178"><path
                                   id="path3180"
                                   style="fill:#ffffff;fill-opacity:1;fill-rule:nonzero;stroke:none"
                                   d="m 23.465,725.078 603.5,0 0,-226.25 -603.5,0 0,226.25 z"
                                   inkscape:connector-curvature="0" /><path
                                   id="path3182"
                                   style="fill:none;stroke:#fafafa;stroke-width:1.05999994;stroke-linecap:butt;stroke-linejoin:round;stroke-miterlimit:10;stroke-opacity:1;stroke-dasharray:none"
                                   d="m 23.465,529.68 603.5,0"
                                   inkscape:connector-curvature="0" /><path
                                   id="path3184"
                                   style="fill:none;stroke:#fafafa;stroke-width:1.05999994;stroke-linecap:butt;stroke-linejoin:round;stroke-miterlimit:10;stroke-opacity:1;stroke-dasharray:none"
                                   d="m 23.465,570.816 603.5,0"
                                   inkscape:connector-curvature="0" /><path
                                   id="path3186"
                                   style="fill:none;stroke:#fafafa;stroke-width:1.05999994;stroke-linecap:butt;stroke-linejoin:round;stroke-miterlimit:10;stroke-opacity:1;stroke-dasharray:none"
                                   d="m 23.465,611.957 603.5,0"
                                   inkscape:connector-curvature="0" /><path
                                   id="path3188"
                                   style="fill:none;stroke:#fafafa;stroke-width:1.05999994;stroke-linecap:butt;stroke-linejoin:round;stroke-miterlimit:10;stroke-opacity:1;stroke-dasharray:none"
                                   d="m 23.465,653.09 603.5,0"
                                   inkscape:connector-curvature="0" /><path
                                   id="path3190"
                                   style="fill:none;stroke:#fafafa;stroke-width:1.05999994;stroke-linecap:butt;stroke-linejoin:round;stroke-miterlimit:10;stroke-opacity:1;stroke-dasharray:none"
                                   d="m 23.465,694.227 603.5,0"
                                   inkscape:connector-curvature="0" /><path
                                   id="path3192"
                                   style="fill:none;stroke:#fafafa;stroke-width:1.05999994;stroke-linecap:butt;stroke-linejoin:round;stroke-miterlimit:10;stroke-opacity:1;stroke-dasharray:none"
                                   d="m 50.895,498.828 0,226.25"
                                   inkscape:connector-curvature="0" /><path
                                   id="path3194"
                                   style="fill:none;stroke:#fafafa;stroke-width:1.05999994;stroke-linecap:butt;stroke-linejoin:round;stroke-miterlimit:10;stroke-opacity:1;stroke-dasharray:none"
                                   d="m 207.652,498.828 0,226.25"
                                   inkscape:connector-curvature="0" /><path
                                   id="path3196"
                                   style="fill:none;stroke:#fafafa;stroke-width:1.05999994;stroke-linecap:butt;stroke-linejoin:round;stroke-miterlimit:10;stroke-opacity:1;stroke-dasharray:none"
                                   d="m 364.402,498.828 0,226.25"
                                   inkscape:connector-curvature="0" /><path
                                   id="path3198"
                                   style="fill:none;stroke:#fafafa;stroke-width:1.05999994;stroke-linecap:butt;stroke-linejoin:round;stroke-miterlimit:10;stroke-opacity:1;stroke-dasharray:none"
                                   d="m 521.152,498.828 0,226.25"
                                   inkscape:connector-curvature="0" /><path
                                   id="path3200"
                                   style="fill:none;stroke:#e5e5e5;stroke-width:0.43000001;stroke-linecap:butt;stroke-linejoin:round;stroke-miterlimit:10;stroke-opacity:1;stroke-dasharray:none"
                                   d="m 23.465,509.117 603.5,0"
                                   inkscape:connector-curvature="0" /><path
                                   id="path3202"
                                   style="fill:none;stroke:#e5e5e5;stroke-width:0.43000001;stroke-linecap:butt;stroke-linejoin:round;stroke-miterlimit:10;stroke-opacity:1;stroke-dasharray:none"
                                   d="m 23.465,550.25 603.5,0"
                                   inkscape:connector-curvature="0" /><path
                                   id="path3204"
                                   style="fill:none;stroke:#e5e5e5;stroke-width:0.43000001;stroke-linecap:butt;stroke-linejoin:round;stroke-miterlimit:10;stroke-opacity:1;stroke-dasharray:none"
                                   d="m 23.465,591.387 603.5,0"
                                   inkscape:connector-curvature="0" /><path
                                   id="path3206"
                                   style="fill:none;stroke:#e5e5e5;stroke-width:0.43000001;stroke-linecap:butt;stroke-linejoin:round;stroke-miterlimit:10;stroke-opacity:1;stroke-dasharray:none"
                                   d="m 23.465,632.52 603.5,0"
                                   inkscape:connector-curvature="0" /><path
                                   id="path3208"
                                   style="fill:none;stroke:#e5e5e5;stroke-width:0.43000001;stroke-linecap:butt;stroke-linejoin:round;stroke-miterlimit:10;stroke-opacity:1;stroke-dasharray:none"
                                   d="m 23.465,673.66 603.5,0"
                                   inkscape:connector-curvature="0" /><path
                                   id="path3210"
                                   style="fill:none;stroke:#e5e5e5;stroke-width:0.43000001;stroke-linecap:butt;stroke-linejoin:round;stroke-miterlimit:10;stroke-opacity:1;stroke-dasharray:none"
                                   d="m 23.465,714.789 603.5,0"
                                   inkscape:connector-curvature="0" /><path
                                   id="path3212"
                                   style="fill:none;stroke:#e5e5e5;stroke-width:0.43000001;stroke-linecap:butt;stroke-linejoin:round;stroke-miterlimit:10;stroke-opacity:1;stroke-dasharray:none"
                                   d="m 129.273,498.828 0,226.25"
                                   inkscape:connector-curvature="0" /><path
                                   id="path3214"
                                   style="fill:none;stroke:#e5e5e5;stroke-width:0.43000001;stroke-linecap:butt;stroke-linejoin:round;stroke-miterlimit:10;stroke-opacity:1;stroke-dasharray:none"
                                   d="m 286.023,498.828 0,226.25"
                                   inkscape:connector-curvature="0" /><path
                                   id="path3216"
                                   style="fill:none;stroke:#e5e5e5;stroke-width:0.43000001;stroke-linecap:butt;stroke-linejoin:round;stroke-miterlimit:10;stroke-opacity:1;stroke-dasharray:none"
                                   d="m 442.785,498.828 0,226.25"
                                   inkscape:connector-curvature="0" /><path
                                   id="path3218"
                                   style="fill:none;stroke:#e5e5e5;stroke-width:0.43000001;stroke-linecap:butt;stroke-linejoin:round;stroke-miterlimit:10;stroke-opacity:1;stroke-dasharray:none"
                                   d="m 599.535,498.828 0,226.25"
                                   inkscape:connector-curvature="0" /><path
                                   id="path3220"
                                   style="fill:none;stroke:#000000;stroke-width:1.05999994;stroke-linecap:butt;stroke-linejoin:round;stroke-miterlimit:1;stroke-opacity:1;stroke-dasharray:none"
                                   d="m 50.895,509.117 1.019,0 0.078,0.821 1.57,0 0.083,0.41 8.23,0 0.078,4.531 0.859,0 0.083,0.41 0.781,0 0.078,-0.832 1.57,0 0.071,-0.41 4.55,0 0.078,2.062 3.602,0 0.078,-4.531 0.859,0 0.083,-0.41 2.98,0 0.078,0.832 0.473,0 0.078,4.109 3.449,0 0.07,-2.062 7.61,0 0.082,-0.82 0.469,0 0.07,-4.11 2.039,0 0.082,1.641 0.937,0 0.083,2.879 5.96,0 0.071,4.531 3.918,0 0.082,0.82 0.629,0 0.078,-1.648 0.941,0 0.078,-2.883 2.192,0 0.082,0.832 0.547,0 0.082,5.34 1.949,0 0.082,0.418 0.238,0 0.078,0.41 0.313,0 0.078,1.231 0.312,0 0.079,2.062 0.16,0 0.082,2.469 0.226,0 0.082,1.23 1.719,0 0.082,1.649 1.57,0 0.079,-0.828 3.921,0 0.071,-0.821 0.547,0 0.082,-5.351 1.961,0 0.078,-0.41 0.23,0 0.078,-0.411 0.321,0 0.082,-1.23 0.308,0 0.082,-6.59 0.078,0.832 0.071,0 0.082,-2.473 0.238,0 0.078,-1.238 1.723,0 0.078,-1.64 6.66,0 0.082,2.062 2.66,0 0.078,-0.832 8.942,0 0.078,-2.051 8.223,0 0.078,0.821 2.672,0 0.078,0.41 0.07,0 0.078,0.41 0.242,0 0.078,1.242 0.864,0 0.078,6.988 0.082,0.821 0.469,0 0.07,1.238 0.551,0 0.078,9.461 0.391,0 0.078,0.41 0.16,0 0.082,6.992 1.64,0 0.079,0.406 0.16,0 0.082,5.762 0.066,0 0.082,2.059 3.449,0 0.082,-0.821 0.231,0 0.078,0.821 0.789,0 0.082,0.82 0.07,0.41 0.079,0.41 0.082,0.422 0.078,0.41 0.082,6.579 0.226,0 0.082,0.82 0.782,0 0.078,-0.41 0.082,0 0.078,-0.41 0.16,0 0.07,0.41 0.078,-1.231 0.161,0 0.082,7.813 0.078,0 0.07,0.41 0.473,0 0.078,-6.992 0.082,-0.821 0.469,0 0.078,-1.238 0.551,0 0.082,-9.461 0.386,0 0.082,-0.41 0.149,0 0.082,-6.988 1.648,0 0.082,-0.41 0.149,0 0.082,-5.762 0.078,0 0.082,-2.059 1.25,0 0.078,0.41 2.43,0 0.082,-0.82 0.777,0 0.082,-0.82 0.078,-0.422 0.082,-0.41 0.078,-0.41 0.082,-0.411 0.071,-6.578 0.238,0 0.078,-0.82 1.172,0 0.078,-0.418 0.242,0 0.071,-7.812 0.078,0 0.082,-0.411 5.879,0 0.082,-0.41 3.289,0 0.078,0.821 0.312,0 0.079,0.82 1.179,0 0.071,4.531 2.199,0 0.082,9.871 6.418,0 0.082,5.758 1.258,0 0.07,-0.82 0.32,0 0.082,-0.828 1.168,0 0.082,-4.52 2.188,0 0.082,-9.871 0.078,2.051 6.352,0 0.078,-5.762 5.25,0 0.082,-2.051 27.738,0 0.082,1.231 11.68,0 0.078,-1.231 9.32,0 0.082,0.41 7.207,0 0.082,5.352 2.821,0 0.078,2.461 1.492,0 0.078,-0.41 0.312,0 0.079,0.41 3.371,0 0.078,0.41 0.711,0 0.07,1.238 0.078,2.879 1.262,0 0.07,9.051 1.18,0 0.082,-5.352 2.508,0 0.082,1.653 0.066,10.281 0.082,0 0.078,0.41 0.082,-2.472 0.309,0 0.082,4.121 0.629,0 0.082,3.289 0.148,0 0.078,10.691 0.083,0.41 0.078,0.828 0.082,0 0.07,25.09 0.078,1.231 0.082,6.172 0.629,0 0.078,7.82 0.07,8.637 0.403,0 0.078,2.882 0.699,0 0.082,6.989 0.391,0 0.078,1.23 0.23,0 0.082,1.649 0.079,3.293 0.468,0 0.082,1.648 0.078,0 0.083,6.172 0.699,0 0.082,-1.242 0.078,-2.879 0.16,0 0.07,1.648 1.649,0 0.082,0.821 1.097,0 0.071,6.992 0.32,0 0.082,15.218 0.231,0 0.078,1.649 0.16,0 0.07,0.82 0.078,0 0.082,2.063 0.469,0 0.082,4.109 0.078,4.527 0.082,6.582 0.071,5.352 0.078,2.469 0.082,-1.653 0.078,-10.277 0.082,0 0.078,-0.422 0.231,0 0.078,10.699 0.082,1.231 0.078,2.883 0.472,0 0.079,9.047 0.07,0 0.082,-3.289 0.078,9.46 0.078,7.411 0.082,-9.871 0.078,2.46 0.071,-0.41 0.082,17.282 0.078,-15.633 0.082,-1.239 0.078,-4.109 0.082,2.879 0.07,-0.41 0.078,0.41 0.082,2.469 0.079,0 0.082,0.82 0.078,0 0.07,4.531 0.078,-7.82 0.082,-8.641 0.078,0 0.082,4.11 0.078,0 0.071,4.121 0.082,6.582 0.078,-2.063 0.16,0 0.082,0.832 0.469,0 0.082,-4.941 0.387,0 0.082,-1.23 0.23,0 0.078,-1.649 0.082,-3.289 0.469,0 0.078,-1.652 0.07,0 0.083,-6.578 0.32,0 0.07,0.82 0.629,0 0.078,-1.641 1.024,0 0.078,-9.051 0.551,0 0.07,-0.82 1.097,0 0.083,-7 0.308,0 0.082,-15.219 0.238,0 0.082,-1.64 0.149,0 0.082,-0.821 0.078,0 0.078,-2.058 0.473,0 0.078,-4.113 0.07,-4.528 0.082,-6.582 0.078,-5.347 0.082,-2.473 0.547,0 0.082,-10.688 0.071,-1.242 0.078,-6.988 0.472,0 0.079,-9.051 0.16,0 0.082,-9.461 0.078,-7.398 0.07,-0.832 0.078,-2.879 0.082,-0.41 0.078,-17.282 0.083,-9.457 0.078,0 0.07,-2.05 0.082,-2.879 0.078,0 0.082,-0.41 0.078,-2.473 0.082,0 0.071,-0.82 0.078,0 0.082,-4.528 0.238,0 0.07,-4.109 0.078,0 0.083,-4.121 0.078,-6.582 0.082,-0.821 0.148,0 0.082,-0.816 0.469,0 0.082,-2.062 1.879,0 0.078,-0.821 2.98,0 0.082,2.461 9.008,0 0.082,0.422 2.59,0 0.07,-2.473 9.02,0 0.078,-0.41 1.172,0 0.078,4.11 1.102,0 0.078,0.41 3.441,0 0.078,4.113 1.184,0 0.078,2.879 2.5,0 0.078,1.238 1.883,0 0.078,0.41 1.18,0 0.082,-4.109 1.09,0 0.078,-0.418 1.41,0 0.082,1.238 1.961,0 0.078,-4.109 1.172,0 0.078,-2.879 2.512,0 0.078,-1.242 1.879,0 0.082,-0.41 3.84,0 0.078,-1.231 1.57,0 0.07,1.231 0.321,0 0.082,9.461 2.109,0 0.078,1.238 0.551,0 0.078,8.633 0.473,0 0.078,2.468 1.25,0 0.082,2.059 0.309,0 0.082,0.82 0.078,0 0.082,0.821 0.148,0 0.078,3.711 0.082,5.757 0.161,0 0.078,0.411 0.312,0 0.078,2.472 0.231,0 0.082,0.41 0.078,0 0.082,0.821 0.078,0 0.07,0.82 0.078,0.816 0.083,0 0.078,2.883 0.082,0 0.078,0.418 0.312,0 0.078,0.821 0.082,0 0.071,1.64 0.078,4.531 0.082,1.641 0.078,0.418 0.078,0.82 0.082,2.469 0.551,0 0.07,0.41 0.078,0 0.082,0.41 0.079,0.821 0.23,0 0.078,0.41 0.16,0 0.082,0.41 0.078,0.422 0.622,0 0.082,3.289 0.937,0 0.082,-1.242 0.309,0 0.082,-9.457 0.937,0 0.082,4.109 1.098,0 0.082,-1.23 0.551,0 0.066,-5.762 0.473,0 0.078,-2.469 0.473,0 0.078,3.289 0.711,0 0.07,-2.051 0.32,0 0.078,-0.816 0.071,0 0.082,-0.832 0.16,0 0.078,-3.699 0.078,-5.762 0.153,0 0.078,-0.41 0.32,0 0.07,-2.469 0.242,0 0.079,-0.41 0.082,0 0.07,-0.82 0.078,0 0.078,-0.828 0.082,-0.821 0.078,0 0.082,-2.883 0.071,0 0.078,-0.406 0.32,0 0.07,-0.82 0.082,0 0.079,-1.652 0.082,-4.52 0.078,-1.648 0.082,-0.411 0.066,-0.82 0.082,-2.473 0.551,0 0.078,-0.406 0.082,0 0.078,-0.41 0.082,-0.82 0.231,0 0.078,-0.422 0.16,0 0.07,-0.41 0.078,-0.41 0.633,0 0.078,-3.29 2.352,0 0.078,-4.109 1.723,0 0.078,-2.879 1.019,0 0.082,-3.293 0.309,0 0.078,2.051 11.684,0 0.078,-2.051 13.082,0 0.078,0.41 0.238,0 0.082,0.411 1.02,0 0.07,1.23 0.238,0 0.083,0.41 9.949,0 0.082,-0.41 0.226,0 0.082,-0.41 1.02,0 0.082,-1.231 0.238,0 0.071,-0.41 12.23,0 0.078,2.461 11.68,0 0.082,-2.461 8.461,0 0.078,4.52 0.082,0 0.066,2.062 0.633,0 0.078,0.41 0.242,0 0.071,0.411 0.078,0 0.082,0.41 5.328,0 0.078,5.758 0.082,0 0.078,4.531 0.703,0 0.079,5.758 0.082,0.41 0.078,0 0.07,0.41 0.32,0 0.078,1.641 0.071,0.832 0.472,0 0.079,0.82 0.16,0 0.082,0.82 0.078,3.289 0.308,0 0.083,2.469 0.308,0 0.082,4.109 0.938,0 0.082,1.243 0.078,0 0.082,0.41 0.469,0 0.07,-2.063 0.082,0 0.078,-2.051 0.629,0 0.082,-0.418 0.391,0 0.078,-0.41 0.23,0 0.078,4.532 0.551,0 0.082,0.41 0.938,0 0.082,0.41 0.148,0 0.082,9.047 0.078,2.472 0.86,0 0.082,2.469 0.308,0 0.082,1.231 0.078,3.289 0.551,0 0.078,8.64 0.313,0 0.078,1.649 0.633,0 0.066,-5.758 0.082,0 0.078,-4.531 0.711,0 0.082,-5.758 0.071,-0.41 0.078,0 0.082,-0.41 0.308,0 0.078,-1.653 0.083,-0.82 0.468,0 0.082,-0.82 0.16,0 0.071,-0.817 0.078,-3.293 0.32,0 0.071,-2.469 0.32,0 0.078,-4.121 0.941,0 0.078,-1.23 0.071,0 0.082,-0.41 0.32,0 0.07,0.41 0.079,0 0.082,-2.469 1.097,0 0.082,-0.41 0.391,0 0.078,-4.52 0.551,0 0.07,-0.421 0.938,0 0.082,-0.411 0.16,0 0.078,-9.046 0.082,-2.473 0.859,0 0.078,-2.457 0.313,0 0.078,-1.242 0.082,-3.289 0.551,0 0.066,-8.641 0.321,0 0.082,-1.641 5.48,0 0.078,-0.41 9.332,0 0.078,5.762 2.43,0 0.07,0.41 2.981,0 0.082,0.41 6.109,0 0.078,-5.761 2.43,0 0.082,-0.411 1.57,0 0.079,0.411 1.332,0 0.078,-0.411 10.261,0 0.079,-0.41 2.589,0 0.082,2.051 3.84,0 0.078,0.41 0.071,7 0.711,0 0.078,2.051 0.082,0 0.078,1.238 0.312,0 0.079,0.821 0.082,0.41 0.617,0 0.082,1.242 5.57,0 0.07,-2.063 1.489,0 0.082,0.821 2.269,0 0.078,-0.41 0.082,-6.989 0.707,0 0.071,-2.062 0.082,0 0.078,-1.227 0.32,0 0.071,-0.832 0.082,-0.41 0.629,0 0.078,-1.23 7.132,0 0.079,-0.821 13.64,0 0.071,4.11 1.57,0 0.078,0.82 2.82,0 0.082,6.172 0.7,0 0.078,0.41 5.25,0 0.082,5.348 1.019,0 0.078,-4.11 1.571,0 0.082,-0.82 2.578,0 0.082,4.113 0.078,0.817 0.082,0 0.078,-6.168 0.699,0 0.082,-0.411 0.551,0"
                                   inkscape:connector-curvature="0" /><path
                                   id="path3222"
                                   style="fill:none;stroke:#0000ff;stroke-width:1.05999994;stroke-linecap:butt;stroke-linejoin:round;stroke-miterlimit:1;stroke-opacity:1;stroke-dasharray:none"
                                   d="m 50.895,509.117 2.667,0 0.083,0.41 11.679,0 0.071,-0.41 26.648,0 0.082,1.641 0.937,0 0.083,2.879 9.949,0 0.082,0.82 0.629,0 0.078,-1.641 0.941,0 0.078,-2.878 2.192,0 0.082,0.82 0.547,0 0.082,5.351 1.949,0 0.082,0.411 0.238,0 0.078,0.41 0.313,0 0.078,1.238 0.312,0 0.079,6.582 0.16,0 0.082,2.469 0.226,0 0.082,1.23 1.719,0 0.082,1.649 1.57,0 0.079,-0.828 3.921,0 0.071,-0.821 0.547,0 0.082,-5.351 1.961,0 0.078,-0.41 0.23,0 0.078,-0.411 0.321,0 0.082,-1.23 0.308,0 0.082,-6.59 0.078,0.832 0.071,0 0.082,-2.473 0.238,0 0.078,-1.238 1.723,0 0.078,-1.64 9.402,0 0.078,-0.821 19.993,0 0.078,0.41 0.07,0 0.078,0.411 0.242,0 0.078,1.23 0.864,0 0.078,7 0.082,0.82 0.469,0 0.07,1.231 0.551,0 0.078,9.461 0.391,0 0.078,0.418 0.16,0 0.082,6.992 8.301,0 0.078,-0.41 0.082,0 0.078,-0.41 0.23,0 0.078,-1.243 0.321,0 0.07,0.411 0.473,0 0.078,-6.989 0.082,-0.82 0.469,0 0.078,-1.242 0.551,0 0.082,-9.457 0.386,0 0.082,-0.41 0.149,0 0.082,-6.993 3.371,0 0.078,0.411 5.719,0 0.082,-0.411 5.879,0 0.082,-0.41 3.289,0 0.078,0.821 0.312,0 0.079,0.82 1.179,0 0.071,4.531 10.039,0 0.07,-0.832 0.32,0 0.082,-0.82 1.168,0 0.082,-4.52 2.27,0 0.078,2.051 11.68,0 0.082,-2.051 48.898,0 0.082,0.41 10.11,0 0.078,2.473 1.492,0 0.078,-0.422 0.312,0 0.079,0.422 3.371,0 0.078,0.41 0.711,0 0.07,1.227 0.078,2.883 1.262,0 0.07,9.046 4.078,0 0.082,-2.468 1.02,0 0.082,3.289 0.148,0 0.078,10.703 0.083,0 0.078,0.82 0.082,0 0.07,25.09 0.078,1.238 0.082,6.172 0.629,0 0.078,7.809 0.07,8.64 0.403,0 0.078,2.879 0.699,0 0.082,7 0.391,0 0.078,1.231 0.23,0 0.082,1.64 0.079,3.301 0.468,0 0.082,1.637 0.078,0 0.083,6.172 0.699,0 0.082,-1.231 0.078,-2.879 0.16,0 0.07,1.641 1.649,0 0.082,0.828 4.539,0 0.082,-3.301 0.156,0 0.082,-10.687 0.078,0 0.071,-0.82 0.082,0 0.078,-25.102 0.082,-1.23 0.078,-6.168 0.082,0 0.07,-0.411 0.469,0 0.078,-7.82 0.082,-8.641 0.391,0 0.078,-2.878 0.711,0 0.082,-6.993 0.387,0 0.082,-1.23 0.23,0 0.078,-1.649 0.082,-3.289 0.469,0 0.078,-1.64 0.07,0 0.083,-6.59 1.019,0 0.078,-1.641 1.024,0 0.078,-9.05 0.551,0 0.07,-0.821 35.59,0 0.078,0.41 3.441,0 0.078,4.11 1.184,0 0.078,2.883 6.891,0 0.078,-0.411 1.41,0 0.082,1.231 1.961,0 0.078,-4.113 1.172,0 0.078,-2.879 8.391,0 0.078,-1.231 1.57,0 0.07,1.231 0.321,0 0.082,9.461 2.109,0 0.078,1.238 0.551,0 0.078,8.633 8.461,0 0.082,-1.231 0.309,0 0.082,-9.461 0.937,0 0.082,4.11 1.098,0 0.082,-1.231 0.551,0 0.066,-8.64 9.883,0 0.078,-4.11 29.551,0 0.07,1.231 11.68,0 0.082,-1.231 12.539,0 0.078,2.461 11.68,0 0.082,-2.461 8.461,0 0.078,4.52 0.082,0 0.066,2.062 0.633,0 0.078,0.41 0.242,0 0.071,0.411 0.078,0 0.082,0.41 5.328,0 0.078,5.758 0.082,0 0.078,4.531 0.703,0 0.079,5.758 0.082,0.41 0.078,0 0.07,0.41 0.32,0 0.078,1.641 0.543,0 0.079,0.832 2.039,0 0.082,1.23 0.629,0 0.07,-4.523 0.082,0 0.078,-2.059 0.629,0 0.082,-0.41 0.23,0 0.079,-0.41 0.082,0 0.078,-0.418 0.23,0 0.078,4.527 0.551,0 0.082,0.41 1.168,0 0.082,9.051 0.078,2.469 0.86,0 0.082,2.472 2.121,0 0.066,-5.761 0.082,0 0.078,-4.532 0.711,0 0.082,-5.757 0.071,-0.411 0.078,0 0.082,-0.41 0.308,0 0.078,-1.64 0.551,0 0.082,-0.828 2.039,0 0.078,-1.231 2.274,0 0.078,-4.531 0.551,0 0.07,-0.41 1.18,0 0.078,-9.051 0.082,-2.469 0.859,0 0.078,-2.461 21.942,0 0.082,0.41 11.68,0 0.078,-0.41 16.851,0 0.078,0.41 0.782,0 0.078,2.051 0.082,0 0.078,1.238 0.312,0 0.079,0.821 0.082,0.41 0.617,0 0.082,1.242 9.48,0 0.078,-0.41 0.789,0 0.071,-2.063 0.082,0 0.078,-1.238 0.32,0 0.071,-0.82 0.082,-0.41 0.629,0 0.078,-1.231 20.851,0 0.071,4.11 1.57,0 0.078,0.82 2.82,0 0.082,6.172 0.7,0 0.078,0.41 5.25,0 0.082,5.348 1.019,0 0.078,-4.11 1.571,0 0.082,-0.82 2.578,0 0.082,4.113 0.078,0.817 0.082,0 0.078,-6.168 0.699,0 0.082,-0.411 0.551,0"
                                   inkscape:connector-curvature="0" /><path
                                   id="path3224"
                                   style="fill:none;stroke:#ff0000;stroke-width:1.05999994;stroke-linecap:butt;stroke-linejoin:round;stroke-miterlimit:1;stroke-opacity:1;stroke-dasharray:none"
                                   d="m 50.895,509.117 1.019,0 0.078,0.821 9.883,0 0.078,4.519 0.859,0 0.083,0.422 0.781,0 0.078,-0.832 6.191,0 0.078,2.062 3.602,0 0.078,-4.531 0.859,0 0.083,-0.41 2.98,0 0.078,0.832 0.473,0 0.078,4.109 3.449,0 0.07,-2.062 7.61,0 0.082,-0.82 0.469,0 0.07,-4.11 9.101,0 0.071,4.52 11.679,0 0.079,-4.52 20.769,0 0.082,2.051 11.68,0 0.078,-2.051 8.223,0 0.078,0.821 7.761,0 0.079,0.41 0.16,0 0.082,5.761 0.066,0 0.082,2.059 3.449,0 0.082,-0.828 0.231,0 0.078,0.828 0.789,0 0.082,0.82 0.07,0.41 0.079,0.411 0.082,0.41 0.078,0.41 0.082,6.59 0.226,0 0.082,0.82 1.18,0 0.07,0.41 0.239,0 0.082,7.821 4.308,0 0.082,-0.422 0.149,0 0.082,-5.75 0.078,0 0.082,-2.059 3.758,0 0.082,-0.82 0.777,0 0.082,-0.832 0.078,-0.41 0.082,-0.411 0.078,-0.406 0.082,-0.41 0.071,-6.582 0.238,0 0.078,-0.828 1.172,0 0.078,-0.41 0.242,0 0.071,-7.813 13.328,0 0.082,9.871 6.418,0 0.082,5.762 5.168,0 0.082,-9.871 6.43,0 0.078,-5.762 33.07,0 0.082,1.231 11.68,0 0.078,-1.231 16.609,0 0.082,5.34 11.68,0 0.082,-5.34 2.508,0 0.082,1.641 0.066,10.289 0.082,0 0.078,0.41 0.391,0 0.082,4.109 0.937,0 0.083,0.411 7.917,0 0.071,7 0.32,0 0.082,15.222 0.231,0 0.078,1.641 0.16,0 0.07,0.82 0.078,0 0.082,2.059 0.469,0 0.082,4.109 0.078,4.531 0.082,6.579 0.071,5.351 0.078,2.469 0.082,-1.649 0.078,-10.281 0.082,0 0.078,-0.41 0.231,0 0.078,10.691 0.082,1.231 0.078,2.879 0.472,0 0.079,9.051 0.152,0 0.078,9.468 0.078,7.399 0.082,0.82 0.078,2.473 0.071,0.41 0.082,17.277 0.078,9.461 0.082,0 0.078,2.059 0.082,2.883 0.07,0 0.078,0.41 0.082,2.468 0.079,0 0.082,0.821 0.078,0 0.07,4.519 0.238,0 0.082,4.121 0.078,0 0.071,4.11 0.082,6.578 0.078,0.82 0.16,0 0.082,0.832 0.469,0 0.082,2.051 1.879,0 0.07,0.828 3.527,0 0.083,-7 0.308,0 0.082,-15.219 0.238,0 0.082,-1.64 0.149,0 0.082,-0.821 0.078,0 0.078,-2.058 0.473,0 0.078,-4.113 0.07,-4.528 0.082,-6.582 0.078,-5.347 0.082,-2.473 0.547,0 0.082,-10.688 0.071,-1.242 0.078,-6.988 0.472,0 0.079,-9.051 0.16,0 0.082,-9.461 0.078,-7.398 0.07,-0.832 0.078,-2.879 0.082,-0.41 0.078,-17.282 0.083,-9.457 0.078,0 0.07,-2.05 0.082,-2.879 0.078,0 0.082,-0.41 0.078,-2.473 0.082,0 0.071,-0.82 0.078,0 0.082,-4.528 0.238,0 0.07,-4.109 0.078,0 0.083,-4.121 0.078,-6.582 0.082,-0.821 0.148,0 0.082,-0.816 0.469,0 0.082,-2.062 1.879,0 0.078,-0.821 2.98,0 0.082,2.461 9.008,0 0.082,0.422 2.59,0 0.07,-2.473 9.02,0 0.078,-0.41 1.172,0 0.078,4.11 8.461,0 0.078,1.23 1.883,0 0.078,0.422 1.18,0 0.082,-4.121 8.461,0 0.078,-1.231 1.879,0 0.082,-0.41 9.25,0 0.078,2.461 1.25,0 0.082,2.059 0.309,0 0.082,0.82 0.078,0 0.082,0.832 0.148,0 0.078,3.699 0.082,5.762 0.161,0 0.078,0.41 0.312,0 0.078,2.469 0.231,0 0.082,0.41 0.078,0 0.082,0.82 0.078,0 0.07,0.821 0.078,0.828 0.083,0 0.078,2.879 0.082,0 0.078,0.41 0.312,0 0.078,0.82 0.082,0 0.071,1.653 0.078,4.519 0.082,1.649 0.078,0.41 0.078,0.82 0.082,2.469 0.551,0 0.07,0.41 0.078,0 0.082,0.41 0.079,0.82 0.23,0 0.078,0.422 0.16,0 0.082,0.41 0.078,0.411 0.622,0 0.082,3.289 4.16,0 0.066,2.879 0.473,0 0.078,-2.469 0.473,0 0.078,3.289 0.711,0 0.07,-2.059 0.32,0 0.078,-0.82 0.071,0 0.082,-0.82 0.16,0 0.078,-3.7 0.078,-5.761 0.153,0 0.078,-0.41 0.32,0 0.07,-2.469 0.242,0 0.079,-0.41 0.082,0 0.07,-0.832 0.078,0 0.078,-0.817 0.082,-0.82 0.078,0 0.082,-2.883 0.071,0 0.078,-0.41 0.32,0 0.07,-0.82 0.082,0 0.079,-1.649 0.082,-4.531 0.078,-1.637 0.082,-0.41 0.066,-0.82 0.082,-2.473 0.551,0 0.078,-0.41 0.082,0 0.078,-0.418 0.082,-0.82 0.231,0 0.078,-0.411 0.16,0 0.07,-0.41 0.078,-0.41 0.633,0 0.078,-3.289 4.153,0 0.078,-2.879 1.019,0 0.082,-3.293 0.309,0 0.078,2.051 11.684,0 0.078,-2.051 13.082,0 0.078,0.41 0.238,0 0.082,0.411 1.328,0 0.083,0.41 9.949,0 0.082,-0.41 0.226,0 0.082,-0.411 1.34,0 0.071,-0.41 40.917,0 0.071,0.821 0.711,0 0.082,0.82 0.078,3.289 0.308,0 0.083,2.473 0.308,0 0.082,4.109 1.098,0 0.082,0.418 0.469,0 0.07,2.461 1.101,0 0.079,0.422 2.039,0 0.082,0.41 1.558,0 0.082,1.226 0.078,3.293 0.551,0 0.078,8.641 0.313,0 0.078,1.648 2.269,0 0.083,-0.832 0.71,0 0.071,-0.816 0.078,-3.293 0.32,0 0.071,-2.469 0.32,0 0.078,-4.109 1.09,0 0.082,-0.41 0.32,0 0.07,0.41 0.079,0 0.082,-2.469 1.097,0 0.082,-0.41 2.028,0 0.082,-0.41 1.57,0 0.078,-1.242 0.082,-3.289 0.551,0 0.066,-8.641 0.321,0 0.082,-1.641 5.48,0 0.078,-0.41 9.332,0 0.078,5.762 2.43,0 0.07,0.41 9.172,0 0.078,-5.762 2.43,0 0.082,-0.41 1.57,0 0.079,0.41 11.671,0 0.079,-0.41 2.589,0 0.082,2.051 3.918,0 0.071,7 7.691,0 0.07,-2.059 1.489,0 0.082,0.821 2.347,0 0.082,-6.992 9.25,0 0.079,-0.821 31.351,0"
                                   inkscape:connector-curvature="0" /><path
                                   id="path3226"
                                   style="fill:none;stroke:#8b8878;stroke-width:1.05999994;stroke-linecap:butt;stroke-linejoin:round;stroke-miterlimit:10;stroke-opacity:1;stroke-dasharray:4.25, 4.25;stroke-dashoffset:0"
                                   d="m 23.465,511.168 603.5,0"
                                   inkscape:connector-curvature="0" /><path
                                   id="path3228"
                                   style="fill:none;stroke:#7f7f7f;stroke-width:1.05999994;stroke-linecap:round;stroke-linejoin:round;stroke-miterlimit:10;stroke-opacity:1;stroke-dasharray:none"
                                   d="m 23.465,725.078 603.5,0 0,-226.25 -603.5,0 0,226.25 z"
                                   inkscape:connector-curvature="0" /></g></g></g></g></g></g></g></g></g></g></g></g></g></g></g></g></g></g></g></g></g><g
         transform="matrix(1,0,0,0.84616357,0,107.40495)"
         id="g5692"><g
           id="g5694"><g
             clip-path="url(#clipPath5698)"
             id="g5696"><g
               id="g5702" /><g
               id="g5704"><g
                 clip-path="url(#clipPath5708)"
                 id="g5706"><g
                   id="g5712"><g
                     id="g5714"><g
                       clip-path="url(#clipPath5718)"
                       id="g5716"><g
                         id="g5722" /><g
                         id="g5724"><g
                           clip-path="url(#clipPath5728)"
                           id="g5726"><g
                             id="g5732"><g
                               id="g5734"><g
                                 clip-path="url(#clipPath5738)"
                                 id="g5736"><g
                                   id="g5742" /><g
                                   id="g5744"><g
                                   clip-path="url(#clipPath5748)"
                                   id="g5746"><g
                                   id="g5752"><g
                                   id="g5754"><g
                                   clip-path="url(#clipPath5758)"
                                   id="g5756"><g
                                   id="g5762"><g
                                   transform="matrix(0.936635,0,0,1,0,750)"
                                   id="g5764"><path
                                   inkscape:connector-curvature="0"
                                   id="path5766"
                                   style="fill:#ffffff;fill-opacity:1;fill-rule:nonzero;stroke:#ffffff;stroke-width:1.353302;stroke-linecap:round;stroke-linejoin:round;stroke-miterlimit:10;stroke-opacity:1;stroke-dasharray:none"
                                   d="m 4.863,-4 670.919,0 0,-298.188 -670.919,0 0,298.188 z" /></g></g></g></g></g></g></g></g></g></g></g></g></g></g></g></g></g></g></g></g><g
         id="g5770"
         clip-path="url(#clipPath5772)"><g
           id="g5776"
           transform="translate(0,-0.304321)"><g
             id="g5778"><g
               id="g5780"
               clip-path="url(#clipPath5782)"><g
                 id="g5786" /><g
                 id="g5788"><g
                   id="g5790"
                   clip-path="url(#clipPath5792)"><g
                     id="g5796"><g
                       id="g5798"><g
                         id="g5800"
                         clip-path="url(#clipPath5802)"><g
                           id="g5806" /><g
                           id="g5808"><g
                             id="g5810"
                             clip-path="url(#clipPath5812)"><g
                               id="g5816"><g
                                 id="g5818"><g
                                   id="g5820"
                                   clip-path="url(#clipPath5822)"><g
                                   id="g5826" /><g
                                   id="g5828"><g
                                   id="g5830"
                                   clip-path="url(#clipPath5832)"><g
                                   id="g5836"><g
                                   id="g5838"><g
                                   id="g5840"
                                   clip-path="url(#clipPath5842)"><g
                                   id="g5846"><path
                                   d="m 23.465,725.078 603.5,0 0,-226.25 -603.5,0 0,226.25 z"
                                   style="fill:#ffffff;fill-opacity:1;fill-rule:nonzero;stroke:none"
                                   id="path5848"
                                   inkscape:connector-curvature="0" /><path
                                   d="m 23.465,529.68 603.5,0"
                                   style="fill:none;stroke:#fafafa;stroke-width:1.05999994;stroke-linecap:butt;stroke-linejoin:round;stroke-miterlimit:10;stroke-opacity:1;stroke-dasharray:none"
                                   id="path5850"
                                   inkscape:connector-curvature="0" /><path
                                   d="m 23.465,570.816 603.5,0"
                                   style="fill:none;stroke:#fafafa;stroke-width:1.05999994;stroke-linecap:butt;stroke-linejoin:round;stroke-miterlimit:10;stroke-opacity:1;stroke-dasharray:none"
                                   id="path5852"
                                   inkscape:connector-curvature="0" /><path
                                   d="m 23.465,611.957 603.5,0"
                                   style="fill:none;stroke:#fafafa;stroke-width:1.05999994;stroke-linecap:butt;stroke-linejoin:round;stroke-miterlimit:10;stroke-opacity:1;stroke-dasharray:none"
                                   id="path5854"
                                   inkscape:connector-curvature="0" /><path
                                   d="m 23.465,653.09 603.5,0"
                                   style="fill:none;stroke:#fafafa;stroke-width:1.05999994;stroke-linecap:butt;stroke-linejoin:round;stroke-miterlimit:10;stroke-opacity:1;stroke-dasharray:none"
                                   id="path5856"
                                   inkscape:connector-curvature="0" /><path
                                   d="m 23.465,694.227 603.5,0"
                                   style="fill:none;stroke:#fafafa;stroke-width:1.05999994;stroke-linecap:butt;stroke-linejoin:round;stroke-miterlimit:10;stroke-opacity:1;stroke-dasharray:none"
                                   id="path5858"
                                   inkscape:connector-curvature="0" /><path
                                   d="m 50.895,498.828 0,226.25"
                                   style="fill:none;stroke:#fafafa;stroke-width:1.05999994;stroke-linecap:butt;stroke-linejoin:round;stroke-miterlimit:10;stroke-opacity:1;stroke-dasharray:none"
                                   id="path5860"
                                   inkscape:connector-curvature="0" /><path
                                   d="m 207.652,498.828 0,226.25"
                                   style="fill:none;stroke:#fafafa;stroke-width:1.05999994;stroke-linecap:butt;stroke-linejoin:round;stroke-miterlimit:10;stroke-opacity:1;stroke-dasharray:none"
                                   id="path5862"
                                   inkscape:connector-curvature="0" /><path
                                   d="m 364.402,498.828 0,226.25"
                                   style="fill:none;stroke:#fafafa;stroke-width:1.05999994;stroke-linecap:butt;stroke-linejoin:round;stroke-miterlimit:10;stroke-opacity:1;stroke-dasharray:none"
                                   id="path5864"
                                   inkscape:connector-curvature="0" /><path
                                   d="m 521.152,498.828 0,226.25"
                                   style="fill:none;stroke:#fafafa;stroke-width:1.05999994;stroke-linecap:butt;stroke-linejoin:round;stroke-miterlimit:10;stroke-opacity:1;stroke-dasharray:none"
                                   id="path5866"
                                   inkscape:connector-curvature="0" /><path
                                   d="m 23.465,509.117 603.5,0"
                                   style="fill:none;stroke:#e5e5e5;stroke-width:0.43000001;stroke-linecap:butt;stroke-linejoin:round;stroke-miterlimit:10;stroke-opacity:1;stroke-dasharray:none"
                                   id="path5868"
                                   inkscape:connector-curvature="0" /><path
                                   d="m 23.465,550.25 603.5,0"
                                   style="fill:none;stroke:#e5e5e5;stroke-width:0.43000001;stroke-linecap:butt;stroke-linejoin:round;stroke-miterlimit:10;stroke-opacity:1;stroke-dasharray:none"
                                   id="path5870"
                                   inkscape:connector-curvature="0" /><path
                                   d="m 23.465,591.387 603.5,0"
                                   style="fill:none;stroke:#e5e5e5;stroke-width:0.43000001;stroke-linecap:butt;stroke-linejoin:round;stroke-miterlimit:10;stroke-opacity:1;stroke-dasharray:none"
                                   id="path5872"
                                   inkscape:connector-curvature="0" /><path
                                   d="m 23.465,632.52 603.5,0"
                                   style="fill:none;stroke:#e5e5e5;stroke-width:0.43000001;stroke-linecap:butt;stroke-linejoin:round;stroke-miterlimit:10;stroke-opacity:1;stroke-dasharray:none"
                                   id="path5874"
                                   inkscape:connector-curvature="0" /><path
                                   d="m 23.465,673.66 603.5,0"
                                   style="fill:none;stroke:#e5e5e5;stroke-width:0.43000001;stroke-linecap:butt;stroke-linejoin:round;stroke-miterlimit:10;stroke-opacity:1;stroke-dasharray:none"
                                   id="path5876"
                                   inkscape:connector-curvature="0" /><path
                                   d="m 23.465,714.789 603.5,0"
                                   style="fill:none;stroke:#e5e5e5;stroke-width:0.43000001;stroke-linecap:butt;stroke-linejoin:round;stroke-miterlimit:10;stroke-opacity:1;stroke-dasharray:none"
                                   id="path5878"
                                   inkscape:connector-curvature="0" /><path
                                   d="m 129.273,498.828 0,226.25"
                                   style="fill:none;stroke:#e5e5e5;stroke-width:0.43000001;stroke-linecap:butt;stroke-linejoin:round;stroke-miterlimit:10;stroke-opacity:1;stroke-dasharray:none"
                                   id="path5880"
                                   inkscape:connector-curvature="0" /><path
                                   d="m 286.023,498.828 0,226.25"
                                   style="fill:none;stroke:#e5e5e5;stroke-width:0.43000001;stroke-linecap:butt;stroke-linejoin:round;stroke-miterlimit:10;stroke-opacity:1;stroke-dasharray:none"
                                   id="path5882"
                                   inkscape:connector-curvature="0" /><path
                                   d="m 442.785,498.828 0,226.25"
                                   style="fill:none;stroke:#e5e5e5;stroke-width:0.43000001;stroke-linecap:butt;stroke-linejoin:round;stroke-miterlimit:10;stroke-opacity:1;stroke-dasharray:none"
                                   id="path5884"
                                   inkscape:connector-curvature="0" /><path
                                   d="m 599.535,498.828 0,226.25"
                                   style="fill:none;stroke:#e5e5e5;stroke-width:0.43000001;stroke-linecap:butt;stroke-linejoin:round;stroke-miterlimit:10;stroke-opacity:1;stroke-dasharray:none"
                                   id="path5886"
                                   inkscape:connector-curvature="0" /><path
                                   d="m 50.895,509.117 1.019,0 0.078,0.821 1.57,0 0.083,0.41 8.23,0 0.078,4.531 0.859,0 0.083,0.41 0.781,0 0.078,-0.832 1.57,0 0.071,-0.41 4.55,0 0.078,2.062 3.602,0 0.078,-4.531 0.859,0 0.083,-0.41 2.98,0 0.078,0.832 0.473,0 0.078,4.109 3.449,0 0.07,-2.062 7.61,0 0.082,-0.82 0.469,0 0.07,-4.11 2.039,0 0.082,1.641 0.937,0 0.083,2.879 5.96,0 0.071,4.531 3.918,0 0.082,0.82 0.629,0 0.078,-1.648 0.941,0 0.078,-2.883 2.192,0 0.082,0.832 0.547,0 0.082,5.34 1.949,0 0.082,0.418 0.238,0 0.078,0.41 0.313,0 0.078,1.231 0.312,0 0.079,2.062 0.16,0 0.082,2.469 0.226,0 0.082,1.23 1.719,0 0.082,1.649 1.57,0 0.079,-0.828 3.921,0 0.071,-0.821 0.547,0 0.082,-5.351 1.961,0 0.078,-0.41 0.23,0 0.078,-0.411 0.321,0 0.082,-1.23 0.308,0 0.082,-6.59 0.078,0.832 0.071,0 0.082,-2.473 0.238,0 0.078,-1.238 1.723,0 0.078,-1.64 6.66,0 0.082,2.062 2.66,0 0.078,-0.832 8.942,0 0.078,-2.051 8.223,0 0.078,0.821 2.672,0 0.078,0.41 0.07,0 0.078,0.41 0.242,0 0.078,1.242 0.864,0 0.078,6.988 0.082,0.821 0.469,0 0.07,1.238 0.551,0 0.078,9.461 0.391,0 0.078,0.41 0.16,0 0.082,6.992 1.64,0 0.079,0.406 0.16,0 0.082,5.762 0.066,0 0.082,2.059 3.449,0 0.082,-0.821 0.231,0 0.078,0.821 0.789,0 0.082,0.82 0.07,0.41 0.079,0.41 0.082,0.422 0.078,0.41 0.082,6.579 0.226,0 0.082,0.82 0.782,0 0.078,-0.41 0.082,0 0.078,-0.41 0.16,0 0.07,0.41 0.078,-1.231 0.161,0 0.082,7.813 0.078,0 0.07,0.41 0.473,0 0.078,-6.992 0.082,-0.821 0.469,0 0.078,-1.238 0.551,0 0.082,-9.461 0.386,0 0.082,-0.41 0.149,0 0.082,-6.988 1.648,0 0.082,-0.41 0.149,0 0.082,-5.762 0.078,0 0.082,-2.059 1.25,0 0.078,0.41 2.43,0 0.082,-0.82 0.777,0 0.082,-0.82 0.078,-0.422 0.082,-0.41 0.078,-0.41 0.082,-0.411 0.071,-6.578 0.238,0 0.078,-0.82 1.172,0 0.078,-0.418 0.242,0 0.071,-7.812 0.078,0 0.082,-0.411 5.879,0 0.082,-0.41 3.289,0 0.078,0.821 0.312,0 0.079,0.82 1.179,0 0.071,4.531 2.199,0 0.082,9.871 6.418,0 0.082,5.758 1.258,0 0.07,-0.82 0.32,0 0.082,-0.828 1.168,0 0.082,-4.52 2.188,0 0.082,-9.871 0.078,2.051 6.352,0 0.078,-5.762 5.25,0 0.082,-2.051 27.738,0 0.082,1.231 11.68,0 0.078,-1.231 9.32,0 0.082,0.41 7.207,0 0.082,5.352 2.821,0 0.078,2.461 1.492,0 0.078,-0.41 0.312,0 0.079,0.41 3.371,0 0.078,0.41 0.711,0 0.07,1.238 0.078,2.879 1.262,0 0.07,9.051 1.18,0 0.082,-5.352 2.508,0 0.082,1.653 0.066,10.281 0.082,0 0.078,0.41 0.082,-2.472 0.309,0 0.082,4.121 0.629,0 0.082,3.289 0.148,0 0.078,10.691 0.083,0.41 0.078,0.828 0.082,0 0.07,25.09 0.078,1.231 0.082,6.172 0.629,0 0.078,7.82 0.07,8.637 0.403,0 0.078,2.882 0.699,0 0.082,6.989 0.391,0 0.078,1.23 0.23,0 0.082,1.649 0.079,3.293 0.468,0 0.082,1.648 0.078,0 0.083,6.172 0.699,0 0.082,-1.242 0.078,-2.879 0.16,0 0.07,1.648 1.649,0 0.082,0.821 1.097,0 0.071,6.992 0.32,0 0.082,15.218 0.231,0 0.078,1.649 0.16,0 0.07,0.82 0.078,0 0.082,2.063 0.469,0 0.082,4.109 0.078,4.527 0.082,6.582 0.071,5.352 0.078,2.469 0.082,-1.653 0.078,-10.277 0.082,0 0.078,-0.422 0.231,0 0.078,10.699 0.082,1.231 0.078,2.883 0.472,0 0.079,9.047 0.07,0 0.082,-3.289 0.078,9.46 0.078,7.411 0.082,-9.871 0.078,2.46 0.071,-0.41 0.082,17.282 0.078,-15.633 0.082,-1.239 0.078,-4.109 0.082,2.879 0.07,-0.41 0.078,0.41 0.082,2.469 0.079,0 0.082,0.82 0.078,0 0.07,4.531 0.078,-7.82 0.082,-8.641 0.078,0 0.082,4.11 0.078,0 0.071,4.121 0.082,6.582 0.078,-2.063 0.16,0 0.082,0.832 0.469,0 0.082,-4.941 0.387,0 0.082,-1.23 0.23,0 0.078,-1.649 0.082,-3.289 0.469,0 0.078,-1.652 0.07,0 0.083,-6.578 0.32,0 0.07,0.82 0.629,0 0.078,-1.641 1.024,0 0.078,-9.051 0.551,0 0.07,-0.82 1.097,0 0.083,-7 0.308,0 0.082,-15.219 0.238,0 0.082,-1.64 0.149,0 0.082,-0.821 0.078,0 0.078,-2.058 0.473,0 0.078,-4.113 0.07,-4.528 0.082,-6.582 0.078,-5.347 0.082,-2.473 0.547,0 0.082,-10.688 0.071,-1.242 0.078,-6.988 0.472,0 0.079,-9.051 0.16,0 0.082,-9.461 0.078,-7.398 0.07,-0.832 0.078,-2.879 0.082,-0.41 0.078,-17.282 0.083,-9.457 0.078,0 0.07,-2.05 0.082,-2.879 0.078,0 0.082,-0.41 0.078,-2.473 0.082,0 0.071,-0.82 0.078,0 0.082,-4.528 0.238,0 0.07,-4.109 0.078,0 0.083,-4.121 0.078,-6.582 0.082,-0.821 0.148,0 0.082,-0.816 0.469,0 0.082,-2.062 1.879,0 0.078,-0.821 2.98,0 0.082,2.461 9.008,0 0.082,0.422 2.59,0 0.07,-2.473 9.02,0 0.078,-0.41 1.172,0 0.078,4.11 1.102,0 0.078,0.41 3.441,0 0.078,4.113 1.184,0 0.078,2.879 2.5,0 0.078,1.238 1.883,0 0.078,0.41 1.18,0 0.082,-4.109 1.09,0 0.078,-0.418 1.41,0 0.082,1.238 1.961,0 0.078,-4.109 1.172,0 0.078,-2.879 2.512,0 0.078,-1.242 1.879,0 0.082,-0.41 3.84,0 0.078,-1.231 1.57,0 0.07,1.231 0.321,0 0.082,9.461 2.109,0 0.078,1.238 0.551,0 0.078,8.633 0.473,0 0.078,2.468 1.25,0 0.082,2.059 0.309,0 0.082,0.82 0.078,0 0.082,0.821 0.148,0 0.078,3.711 0.082,5.757 0.161,0 0.078,0.411 0.312,0 0.078,2.472 0.231,0 0.082,0.41 0.078,0 0.082,0.821 0.078,0 0.07,0.82 0.078,0.816 0.083,0 0.078,2.883 0.082,0 0.078,0.418 0.312,0 0.078,0.821 0.082,0 0.071,1.64 0.078,4.531 0.082,1.641 0.078,0.418 0.078,0.82 0.082,2.469 0.551,0 0.07,0.41 0.078,0 0.082,0.41 0.079,0.821 0.23,0 0.078,0.41 0.16,0 0.082,0.41 0.078,0.422 0.622,0 0.082,3.289 0.937,0 0.082,-1.242 0.309,0 0.082,-9.457 0.937,0 0.082,4.109 1.098,0 0.082,-1.23 0.551,0 0.066,-5.762 0.473,0 0.078,-2.469 0.473,0 0.078,3.289 0.711,0 0.07,-2.051 0.32,0 0.078,-0.816 0.071,0 0.082,-0.832 0.16,0 0.078,-3.699 0.078,-5.762 0.153,0 0.078,-0.41 0.32,0 0.07,-2.469 0.242,0 0.079,-0.41 0.082,0 0.07,-0.82 0.078,0 0.078,-0.828 0.082,-0.821 0.078,0 0.082,-2.883 0.071,0 0.078,-0.406 0.32,0 0.07,-0.82 0.082,0 0.079,-1.652 0.082,-4.52 0.078,-1.648 0.082,-0.411 0.066,-0.82 0.082,-2.473 0.551,0 0.078,-0.406 0.082,0 0.078,-0.41 0.082,-0.82 0.231,0 0.078,-0.422 0.16,0 0.07,-0.41 0.078,-0.41 0.633,0 0.078,-3.29 2.352,0 0.078,-4.109 1.723,0 0.078,-2.879 1.019,0 0.082,-3.293 0.309,0 0.078,2.051 11.684,0 0.078,-2.051 13.082,0 0.078,0.41 0.238,0 0.082,0.411 1.02,0 0.07,1.23 0.238,0 0.083,0.41 9.949,0 0.082,-0.41 0.226,0 0.082,-0.41 1.02,0 0.082,-1.231 0.238,0 0.071,-0.41 12.23,0 0.078,2.461 11.68,0 0.082,-2.461 8.461,0 0.078,4.52 0.082,0 0.066,2.062 0.633,0 0.078,0.41 0.242,0 0.071,0.411 0.078,0 0.082,0.41 5.328,0 0.078,5.758 0.082,0 0.078,4.531 0.703,0 0.079,5.758 0.082,0.41 0.078,0 0.07,0.41 0.32,0 0.078,1.641 0.071,0.832 0.472,0 0.079,0.82 0.16,0 0.082,0.82 0.078,3.289 0.308,0 0.083,2.469 0.308,0 0.082,4.109 0.938,0 0.082,1.243 0.078,0 0.082,0.41 0.469,0 0.07,-2.063 0.082,0 0.078,-2.051 0.629,0 0.082,-0.418 0.391,0 0.078,-0.41 0.23,0 0.078,4.532 0.551,0 0.082,0.41 0.938,0 0.082,0.41 0.148,0 0.082,9.047 0.078,2.472 0.86,0 0.082,2.469 0.308,0 0.082,1.231 0.078,3.289 0.551,0 0.078,8.64 0.313,0 0.078,1.649 0.633,0 0.066,-5.758 0.082,0 0.078,-4.531 0.711,0 0.082,-5.758 0.071,-0.41 0.078,0 0.082,-0.41 0.308,0 0.078,-1.653 0.083,-0.82 0.468,0 0.082,-0.82 0.16,0 0.071,-0.817 0.078,-3.293 0.32,0 0.071,-2.469 0.32,0 0.078,-4.121 0.941,0 0.078,-1.23 0.071,0 0.082,-0.41 0.32,0 0.07,0.41 0.079,0 0.082,-2.469 1.097,0 0.082,-0.41 0.391,0 0.078,-4.52 0.551,0 0.07,-0.421 0.938,0 0.082,-0.411 0.16,0 0.078,-9.046 0.082,-2.473 0.859,0 0.078,-2.457 0.313,0 0.078,-1.242 0.082,-3.289 0.551,0 0.066,-8.641 0.321,0 0.082,-1.641 5.48,0 0.078,-0.41 9.332,0 0.078,5.762 2.43,0 0.07,0.41 2.981,0 0.082,0.41 6.109,0 0.078,-5.761 2.43,0 0.082,-0.411 1.57,0 0.079,0.411 1.332,0 0.078,-0.411 10.261,0 0.079,-0.41 2.589,0 0.082,2.051 3.84,0 0.078,0.41 0.071,7 0.711,0 0.078,2.051 0.082,0 0.078,1.238 0.312,0 0.079,0.821 0.082,0.41 0.617,0 0.082,1.242 5.57,0 0.07,-2.063 1.489,0 0.082,0.821 2.269,0 0.078,-0.41 0.082,-6.989 0.707,0 0.071,-2.062 0.082,0 0.078,-1.227 0.32,0 0.071,-0.832 0.082,-0.41 0.629,0 0.078,-1.23 7.132,0 0.079,-0.821 13.64,0 0.071,4.11 1.57,0 0.078,0.82 2.82,0 0.082,6.172 0.7,0 0.078,0.41 5.25,0 0.082,5.348 1.019,0 0.078,-4.11 1.571,0 0.082,-0.82 2.578,0 0.082,4.113 0.078,0.817 0.082,0 0.078,-6.168 0.699,0 0.082,-0.411 0.551,0"
                                   style="fill:none;stroke:#000000;stroke-width:1.05999994;stroke-linecap:butt;stroke-linejoin:round;stroke-miterlimit:1;stroke-opacity:1;stroke-dasharray:none"
                                   id="path5888"
                                   inkscape:connector-curvature="0" /><path
                                   d="m 50.895,509.117 2.667,0 0.083,0.41 11.679,0 0.071,-0.41 26.648,0 0.082,1.641 0.937,0 0.083,2.879 9.949,0 0.082,0.82 0.629,0 0.078,-1.641 0.941,0 0.078,-2.878 2.192,0 0.082,0.82 0.547,0 0.082,5.351 1.949,0 0.082,0.411 0.238,0 0.078,0.41 0.313,0 0.078,1.238 0.312,0 0.079,6.582 0.16,0 0.082,2.469 0.226,0 0.082,1.23 1.719,0 0.082,1.649 1.57,0 0.079,-0.828 3.921,0 0.071,-0.821 0.547,0 0.082,-5.351 1.961,0 0.078,-0.41 0.23,0 0.078,-0.411 0.321,0 0.082,-1.23 0.308,0 0.082,-6.59 0.078,0.832 0.071,0 0.082,-2.473 0.238,0 0.078,-1.238 1.723,0 0.078,-1.64 9.402,0 0.078,-0.821 19.993,0 0.078,0.41 0.07,0 0.078,0.411 0.242,0 0.078,1.23 0.864,0 0.078,7 0.082,0.82 0.469,0 0.07,1.231 0.551,0 0.078,9.461 0.391,0 0.078,0.418 0.16,0 0.082,6.992 8.301,0 0.078,-0.41 0.082,0 0.078,-0.41 0.23,0 0.078,-1.243 0.321,0 0.07,0.411 0.473,0 0.078,-6.989 0.082,-0.82 0.469,0 0.078,-1.242 0.551,0 0.082,-9.457 0.386,0 0.082,-0.41 0.149,0 0.082,-6.993 3.371,0 0.078,0.411 5.719,0 0.082,-0.411 5.879,0 0.082,-0.41 3.289,0 0.078,0.821 0.312,0 0.079,0.82 1.179,0 0.071,4.531 10.039,0 0.07,-0.832 0.32,0 0.082,-0.82 1.168,0 0.082,-4.52 2.27,0 0.078,2.051 11.68,0 0.082,-2.051 48.898,0 0.082,0.41 10.11,0 0.078,2.473 1.492,0 0.078,-0.422 0.312,0 0.079,0.422 3.371,0 0.078,0.41 0.711,0 0.07,1.227 0.078,2.883 1.262,0 0.07,9.046 4.078,0 0.082,-2.468 1.02,0 0.082,3.289 0.148,0 0.078,10.703 0.083,0 0.078,0.82 0.082,0 0.07,25.09 0.078,1.238 0.082,6.172 0.629,0 0.078,7.809 0.07,8.64 0.403,0 0.078,2.879 0.699,0 0.082,7 0.391,0 0.078,1.231 0.23,0 0.082,1.64 0.079,3.301 0.468,0 0.082,1.637 0.078,0 0.083,6.172 0.699,0 0.082,-1.231 0.078,-2.879 0.16,0 0.07,1.641 1.649,0 0.082,0.828 4.539,0 0.082,-3.301 0.156,0 0.082,-10.687 0.078,0 0.071,-0.82 0.082,0 0.078,-25.102 0.082,-1.23 0.078,-6.168 0.082,0 0.07,-0.411 0.469,0 0.078,-7.82 0.082,-8.641 0.391,0 0.078,-2.878 0.711,0 0.082,-6.993 0.387,0 0.082,-1.23 0.23,0 0.078,-1.649 0.082,-3.289 0.469,0 0.078,-1.64 0.07,0 0.083,-6.59 1.019,0 0.078,-1.641 1.024,0 0.078,-9.05 0.551,0 0.07,-0.821 35.59,0 0.078,0.41 3.441,0 0.078,4.11 1.184,0 0.078,2.883 6.891,0 0.078,-0.411 1.41,0 0.082,1.231 1.961,0 0.078,-4.113 1.172,0 0.078,-2.879 8.391,0 0.078,-1.231 1.57,0 0.07,1.231 0.321,0 0.082,9.461 2.109,0 0.078,1.238 0.551,0 0.078,8.633 8.461,0 0.082,-1.231 0.309,0 0.082,-9.461 0.937,0 0.082,4.11 1.098,0 0.082,-1.231 0.551,0 0.066,-8.64 9.883,0 0.078,-4.11 29.551,0 0.07,1.231 11.68,0 0.082,-1.231 12.539,0 0.078,2.461 11.68,0 0.082,-2.461 8.461,0 0.078,4.52 0.082,0 0.066,2.062 0.633,0 0.078,0.41 0.242,0 0.071,0.411 0.078,0 0.082,0.41 5.328,0 0.078,5.758 0.082,0 0.078,4.531 0.703,0 0.079,5.758 0.082,0.41 0.078,0 0.07,0.41 0.32,0 0.078,1.641 0.543,0 0.079,0.832 2.039,0 0.082,1.23 0.629,0 0.07,-4.523 0.082,0 0.078,-2.059 0.629,0 0.082,-0.41 0.23,0 0.079,-0.41 0.082,0 0.078,-0.418 0.23,0 0.078,4.527 0.551,0 0.082,0.41 1.168,0 0.082,9.051 0.078,2.469 0.86,0 0.082,2.472 2.121,0 0.066,-5.761 0.082,0 0.078,-4.532 0.711,0 0.082,-5.757 0.071,-0.411 0.078,0 0.082,-0.41 0.308,0 0.078,-1.64 0.551,0 0.082,-0.828 2.039,0 0.078,-1.231 2.274,0 0.078,-4.531 0.551,0 0.07,-0.41 1.18,0 0.078,-9.051 0.082,-2.469 0.859,0 0.078,-2.461 21.942,0 0.082,0.41 11.68,0 0.078,-0.41 16.851,0 0.078,0.41 0.782,0 0.078,2.051 0.082,0 0.078,1.238 0.312,0 0.079,0.821 0.082,0.41 0.617,0 0.082,1.242 9.48,0 0.078,-0.41 0.789,0 0.071,-2.063 0.082,0 0.078,-1.238 0.32,0 0.071,-0.82 0.082,-0.41 0.629,0 0.078,-1.231 20.851,0 0.071,4.11 1.57,0 0.078,0.82 2.82,0 0.082,6.172 0.7,0 0.078,0.41 5.25,0 0.082,5.348 1.019,0 0.078,-4.11 1.571,0 0.082,-0.82 2.578,0 0.082,4.113 0.078,0.817 0.082,0 0.078,-6.168 0.699,0 0.082,-0.411 0.551,0"
                                   style="fill:none;stroke:#0000ff;stroke-width:1.05999994;stroke-linecap:butt;stroke-linejoin:round;stroke-miterlimit:1;stroke-opacity:1;stroke-dasharray:none"
                                   id="path5890"
                                   inkscape:connector-curvature="0" /><path
                                   d="m 50.895,509.117 1.019,0 0.078,0.821 9.883,0 0.078,4.519 0.859,0 0.083,0.422 0.781,0 0.078,-0.832 6.191,0 0.078,2.062 3.602,0 0.078,-4.531 0.859,0 0.083,-0.41 2.98,0 0.078,0.832 0.473,0 0.078,4.109 3.449,0 0.07,-2.062 7.61,0 0.082,-0.82 0.469,0 0.07,-4.11 9.101,0 0.071,4.52 11.679,0 0.079,-4.52 20.769,0 0.082,2.051 11.68,0 0.078,-2.051 8.223,0 0.078,0.821 7.761,0 0.079,0.41 0.16,0 0.082,5.761 0.066,0 0.082,2.059 3.449,0 0.082,-0.828 0.231,0 0.078,0.828 0.789,0 0.082,0.82 0.07,0.41 0.079,0.411 0.082,0.41 0.078,0.41 0.082,6.59 0.226,0 0.082,0.82 1.18,0 0.07,0.41 0.239,0 0.082,7.821 4.308,0 0.082,-0.422 0.149,0 0.082,-5.75 0.078,0 0.082,-2.059 3.758,0 0.082,-0.82 0.777,0 0.082,-0.832 0.078,-0.41 0.082,-0.411 0.078,-0.406 0.082,-0.41 0.071,-6.582 0.238,0 0.078,-0.828 1.172,0 0.078,-0.41 0.242,0 0.071,-7.813 13.328,0 0.082,9.871 6.418,0 0.082,5.762 5.168,0 0.082,-9.871 6.43,0 0.078,-5.762 33.07,0 0.082,1.231 11.68,0 0.078,-1.231 16.609,0 0.082,5.34 11.68,0 0.082,-5.34 2.508,0 0.082,1.641 0.066,10.289 0.082,0 0.078,0.41 0.391,0 0.082,4.109 0.937,0 0.083,0.411 7.917,0 0.071,7 0.32,0 0.082,15.222 0.231,0 0.078,1.641 0.16,0 0.07,0.82 0.078,0 0.082,2.059 0.469,0 0.082,4.109 0.078,4.531 0.082,6.579 0.071,5.351 0.078,2.469 0.082,-1.649 0.078,-10.281 0.082,0 0.078,-0.41 0.231,0 0.078,10.691 0.082,1.231 0.078,2.879 0.472,0 0.079,9.051 0.152,0 0.078,9.468 0.078,7.399 0.082,0.82 0.078,2.473 0.071,0.41 0.082,17.277 0.078,9.461 0.082,0 0.078,2.059 0.082,2.883 0.07,0 0.078,0.41 0.082,2.468 0.079,0 0.082,0.821 0.078,0 0.07,4.519 0.238,0 0.082,4.121 0.078,0 0.071,4.11 0.082,6.578 0.078,0.82 0.16,0 0.082,0.832 0.469,0 0.082,2.051 1.879,0 0.07,0.828 3.527,0 0.083,-7 0.308,0 0.082,-15.219 0.238,0 0.082,-1.64 0.149,0 0.082,-0.821 0.078,0 0.078,-2.058 0.473,0 0.078,-4.113 0.07,-4.528 0.082,-6.582 0.078,-5.347 0.082,-2.473 0.547,0 0.082,-10.688 0.071,-1.242 0.078,-6.988 0.472,0 0.079,-9.051 0.16,0 0.082,-9.461 0.078,-7.398 0.07,-0.832 0.078,-2.879 0.082,-0.41 0.078,-17.282 0.083,-9.457 0.078,0 0.07,-2.05 0.082,-2.879 0.078,0 0.082,-0.41 0.078,-2.473 0.082,0 0.071,-0.82 0.078,0 0.082,-4.528 0.238,0 0.07,-4.109 0.078,0 0.083,-4.121 0.078,-6.582 0.082,-0.821 0.148,0 0.082,-0.816 0.469,0 0.082,-2.062 1.879,0 0.078,-0.821 2.98,0 0.082,2.461 9.008,0 0.082,0.422 2.59,0 0.07,-2.473 9.02,0 0.078,-0.41 1.172,0 0.078,4.11 8.461,0 0.078,1.23 1.883,0 0.078,0.422 1.18,0 0.082,-4.121 8.461,0 0.078,-1.231 1.879,0 0.082,-0.41 9.25,0 0.078,2.461 1.25,0 0.082,2.059 0.309,0 0.082,0.82 0.078,0 0.082,0.832 0.148,0 0.078,3.699 0.082,5.762 0.161,0 0.078,0.41 0.312,0 0.078,2.469 0.231,0 0.082,0.41 0.078,0 0.082,0.82 0.078,0 0.07,0.821 0.078,0.828 0.083,0 0.078,2.879 0.082,0 0.078,0.41 0.312,0 0.078,0.82 0.082,0 0.071,1.653 0.078,4.519 0.082,1.649 0.078,0.41 0.078,0.82 0.082,2.469 0.551,0 0.07,0.41 0.078,0 0.082,0.41 0.079,0.82 0.23,0 0.078,0.422 0.16,0 0.082,0.41 0.078,0.411 0.622,0 0.082,3.289 4.16,0 0.066,2.879 0.473,0 0.078,-2.469 0.473,0 0.078,3.289 0.711,0 0.07,-2.059 0.32,0 0.078,-0.82 0.071,0 0.082,-0.82 0.16,0 0.078,-3.7 0.078,-5.761 0.153,0 0.078,-0.41 0.32,0 0.07,-2.469 0.242,0 0.079,-0.41 0.082,0 0.07,-0.832 0.078,0 0.078,-0.817 0.082,-0.82 0.078,0 0.082,-2.883 0.071,0 0.078,-0.41 0.32,0 0.07,-0.82 0.082,0 0.079,-1.649 0.082,-4.531 0.078,-1.637 0.082,-0.41 0.066,-0.82 0.082,-2.473 0.551,0 0.078,-0.41 0.082,0 0.078,-0.418 0.082,-0.82 0.231,0 0.078,-0.411 0.16,0 0.07,-0.41 0.078,-0.41 0.633,0 0.078,-3.289 4.153,0 0.078,-2.879 1.019,0 0.082,-3.293 0.309,0 0.078,2.051 11.684,0 0.078,-2.051 13.082,0 0.078,0.41 0.238,0 0.082,0.411 1.328,0 0.083,0.41 9.949,0 0.082,-0.41 0.226,0 0.082,-0.411 1.34,0 0.071,-0.41 40.917,0 0.071,0.821 0.711,0 0.082,0.82 0.078,3.289 0.308,0 0.083,2.473 0.308,0 0.082,4.109 1.098,0 0.082,0.418 0.469,0 0.07,2.461 1.101,0 0.079,0.422 2.039,0 0.082,0.41 1.558,0 0.082,1.226 0.078,3.293 0.551,0 0.078,8.641 0.313,0 0.078,1.648 2.269,0 0.083,-0.832 0.71,0 0.071,-0.816 0.078,-3.293 0.32,0 0.071,-2.469 0.32,0 0.078,-4.109 1.09,0 0.082,-0.41 0.32,0 0.07,0.41 0.079,0 0.082,-2.469 1.097,0 0.082,-0.41 2.028,0 0.082,-0.41 1.57,0 0.078,-1.242 0.082,-3.289 0.551,0 0.066,-8.641 0.321,0 0.082,-1.641 5.48,0 0.078,-0.41 9.332,0 0.078,5.762 2.43,0 0.07,0.41 9.172,0 0.078,-5.762 2.43,0 0.082,-0.41 1.57,0 0.079,0.41 11.671,0 0.079,-0.41 2.589,0 0.082,2.051 3.918,0 0.071,7 7.691,0 0.07,-2.059 1.489,0 0.082,0.821 2.347,0 0.082,-6.992 9.25,0 0.079,-0.821 31.351,0"
                                   style="fill:none;stroke:#ff0000;stroke-width:1.05999994;stroke-linecap:butt;stroke-linejoin:round;stroke-miterlimit:1;stroke-opacity:1;stroke-dasharray:none"
                                   id="path5892"
                                   inkscape:connector-curvature="0" /><path
                                   d="m 23.465,511.168 603.5,0"
                                   style="fill:none;stroke:#8b8878;stroke-width:1.05999994;stroke-linecap:butt;stroke-linejoin:round;stroke-miterlimit:10;stroke-opacity:1;stroke-dasharray:4.25, 4.25;stroke-dashoffset:0"
                                   id="path5894"
                                   inkscape:connector-curvature="0" /><path
                                   d="m 23.465,725.078 603.5,0 0,-226.25 -603.5,0 0,226.25 z"
                                   style="fill:none;stroke:#7f7f7f;stroke-width:1.05999994;stroke-linecap:round;stroke-linejoin:round;stroke-miterlimit:10;stroke-opacity:1;stroke-dasharray:none"
                                   id="path5896"
                                   inkscape:connector-curvature="0" /></g></g></g></g></g></g></g></g></g></g></g></g></g></g></g></g></g></g></g></g><text
         y="12.784"
         x="536.74371"
         transform="matrix(0,1,1,0,0,0)"
         id="text5900"><tspan
           style="font-size:12px;font-variant:normal;writing-mode:lr-tb;fill:#000000;fill-opacity:1;fill-rule:nonzero;stroke:none;font-family:Nimbus Sans L;-inkscape-font-specification:NimbusSanL-Regu"
           x="536.74371 545.40771 552.07971 562.07568 568.74774 575.41974 579.41571 582.75171 589.42371 592.7597 596.0957 600.09174 606.76373 613.43573 620.10773 626.10773 629.44373 635.91168 641.91168 645.24768 651.91974 658.59174 664.59174 667.25568 670.59174 673.25568 679.92773"
           y="12.784"
           sodipodi:role="line"
           id="tspan5902">Number of reads by position</tspan></text>
<text
         y="-675.83331"
         x="495.76678"
         transform="scale(1,-1)"
         id="text5970"><tspan
           style="font-size:12px;font-variant:normal;writing-mode:lr-tb;fill:#000000;fill-opacity:1;fill-rule:nonzero;stroke:none;font-family:Nimbus Sans L;-inkscape-font-specification:NimbusSanL-Regu"
           x="495.76678 503.77078 512.43481 519.10681 522.44281 525.77881 531.77881 535.11481 539.11078 545.78278 552.49078 559.16278 562.49878 568.49878 575.17078 581.17078 587.84277 591.83881 598.55878 605.23077"
           y="-675.83331"
           sodipodi:role="line"
           id="tspan5972">Bwd. strand coverage</tspan><tspan
           style="font-size:12px;font-variant:normal;writing-mode:lr-tb;fill:#000000;fill-opacity:1;fill-rule:nonzero;stroke:none;font-family:Nimbus Sans L;-inkscape-font-specification:NimbusSanL-Regu"
           x="495.6348 502.9668 511.6308 518.3028 521.63879 524.97479 530.97479 534.31079 538.30682 544.97882 551.65082 558.35883 561.69482 567.69482 574.36682 580.36682 587.03882 591.03479 597.70679 604.42682"
           y="-689.66412"
           sodipodi:role="line"
           id="tspan5974">Fwd. strand coverage</tspan><tspan
           style="font-size:12px;font-variant:normal;writing-mode:lr-tb;fill:#000000;fill-opacity:1;fill-rule:nonzero;stroke:none;font-family:Nimbus Sans L;-inkscape-font-specification:NimbusSanL-Regu"
           x="496.13879 504.8028 511.47479 521.47083 528.17877 530.84277 537.51477 540.85083 543.51477 549.51477 556.18683 559.52283 565.52283 572.19482 578.19482 584.91479 588.91083 595.58282 602.25482"
           y="-703.42297"
           sodipodi:role="line"
           id="tspan5976">Cumulative coverage</tspan></text>
<path
         d="m 474.137,681.625 19.691,0 0,-2.25 -19.691,0 0,2.25 z"
         style="fill:#0000ff;fill-opacity:1;fill-rule:nonzero;stroke:#0000ff;stroke-width:0.80000001;stroke-linecap:butt;stroke-linejoin:miter;stroke-miterlimit:4;stroke-opacity:1;stroke-dasharray:none"
         id="path5978"
         inkscape:connector-curvature="0" /><path
         d="m 474.137,695.457 19.691,0 0,-2.254 -19.691,0 0,2.254 z"
         style="fill:#ff0000;fill-opacity:1;fill-rule:nonzero;stroke:#ff0000;stroke-width:0.80000001;stroke-linecap:butt;stroke-linejoin:miter;stroke-miterlimit:4;stroke-opacity:1;stroke-dasharray:none"
         id="path5980"
         inkscape:connector-curvature="0" /><path
         d="m 474.137,709.286 19.691,0 0,-2.25 -19.691,0 0,2.25 z"
         style="fill:#000000;fill-opacity:1;fill-rule:nonzero;stroke:#000000;stroke-width:0.80000001;stroke-linecap:butt;stroke-linejoin:miter;stroke-miterlimit:4;stroke-opacity:1;stroke-dasharray:none"
         id="path5982"
         inkscape:connector-curvature="0" /></g></g></svg>